<svg width="104" height="124" viewBox="0 0 104 124" fill="none" xmlns="http://www.w3.org/2000/svg">
<rect x="3.5" y="3.5" width="97" height="98" stroke="#5928E5" stroke-width="7"/>
<path d="M1.19629 110.958H8.16211V112.188H2.55664V115.237H7.48535V116.434H2.55664V121H1.19629V110.958ZM14.9939 115.559C15.632 115.559 16.1355 115.431 16.5047 115.176C16.8784 114.921 17.0652 114.46 17.0652 113.795C17.0652 113.079 16.8055 112.592 16.2859 112.332C16.0079 112.195 15.6365 112.127 15.1717 112.127H11.8494V115.559H14.9939ZM10.4891 110.958H15.1375C15.9031 110.958 16.5343 111.07 17.0311 111.293C17.9744 111.721 18.4461 112.512 18.4461 113.665C18.4461 114.267 18.3208 114.759 18.0701 115.142C17.824 115.524 17.4777 115.832 17.0311 116.064C17.423 116.224 17.7169 116.434 17.9129 116.693C18.1134 116.953 18.2251 117.375 18.2479 117.958L18.2957 119.305C18.3094 119.688 18.3413 119.972 18.3914 120.159C18.4734 120.478 18.6193 120.683 18.8289 120.774V121H17.1609C17.1154 120.913 17.0789 120.802 17.0516 120.665C17.0242 120.528 17.0014 120.264 16.9832 119.872L16.9012 118.197C16.8693 117.541 16.6255 117.101 16.1697 116.878C15.91 116.755 15.5021 116.693 14.9461 116.693H11.8494V121H10.4891V110.958ZM26.2965 116.885L24.7721 112.448L23.152 116.885H26.2965ZM24.0611 110.958H25.5992L29.2428 121H27.7525L26.734 117.992H22.7623L21.6754 121H20.2809L24.0611 110.958ZM31.1801 110.958H32.7865L37.8588 119.093V110.958H39.1508V121H37.6264L32.4789 112.872V121H31.1801V110.958ZM46.2287 110.685C47.5002 110.685 48.4868 111.02 49.1887 111.689C49.8905 112.359 50.2801 113.12 50.3576 113.973H49.0314C48.8811 113.326 48.5803 112.813 48.1291 112.435C47.6825 112.056 47.0536 111.867 46.2424 111.867C45.2534 111.867 44.4536 112.216 43.843 112.913C43.2368 113.606 42.9338 114.67 42.9338 116.105C42.9338 117.281 43.2072 118.236 43.7541 118.97C44.3055 119.699 45.1258 120.063 46.215 120.063C47.2176 120.063 47.981 119.678 48.5051 118.908C48.7831 118.503 48.9904 117.969 49.1271 117.309H50.4533C50.3348 118.366 49.9429 119.252 49.2775 119.968C48.48 120.829 47.4045 121.26 46.051 121.26C44.8843 121.26 43.9045 120.907 43.1115 120.2C42.0679 119.266 41.5461 117.824 41.5461 115.873C41.5461 114.392 41.938 113.177 42.7219 112.229C43.5695 111.2 44.7385 110.685 46.2287 110.685ZM52.9443 110.958H60.2656V112.188H54.2705V115.237H59.8145V116.399H54.2705V119.804H60.3682V121H52.9443V110.958ZM66.6258 115.203C67.2 115.203 67.6466 115.123 67.9656 114.964C68.4669 114.713 68.7176 114.262 68.7176 113.61C68.7176 112.954 68.451 112.512 67.9178 112.284C67.617 112.157 67.1704 112.093 66.5779 112.093H64.1512V115.203H66.6258ZM67.0838 119.838C67.9178 119.838 68.5125 119.596 68.868 119.113C69.0913 118.808 69.2029 118.439 69.2029 118.006C69.2029 117.277 68.8771 116.78 68.2254 116.516C67.879 116.374 67.421 116.304 66.8514 116.304H64.1512V119.838H67.0838ZM62.8182 110.958H67.1316C68.3074 110.958 69.1437 111.309 69.6404 112.011C69.9321 112.425 70.0779 112.904 70.0779 113.446C70.0779 114.08 69.8979 114.599 69.5379 115.005C69.351 115.219 69.0822 115.415 68.7313 115.593C69.2462 115.789 69.6313 116.01 69.8865 116.256C70.3377 116.693 70.5633 117.297 70.5633 118.067C70.5633 118.715 70.3605 119.3 69.9549 119.824C69.3488 120.608 68.3849 121 67.0633 121H62.8182V110.958ZM73.0201 110.958H80.3414V112.188H74.3463V115.237H79.8902V116.399H74.3463V119.804H80.4439V121H73.0201V110.958ZM88.0824 116.885L86.558 112.448L84.9379 116.885H88.0824ZM85.8471 110.958H87.3852L91.0287 121H89.5385L88.5199 117.992H84.5482L83.4613 121H82.0668L85.8471 110.958ZM92.9318 110.958H94.8801L97.7648 119.448L100.629 110.958H102.557V121H101.265V115.073C101.265 114.868 101.269 114.529 101.279 114.055C101.288 113.581 101.292 113.073 101.292 112.53L98.4279 121H97.0813L94.1965 112.53V112.838C94.1965 113.084 94.201 113.46 94.2102 113.966C94.2238 114.467 94.2307 114.836 94.2307 115.073V121H92.9318V110.958Z" fill="#5928E5"/>
<path d="M47.022 40.922H27.96V49.94H45.942V57.446H27.96V71H19.104V33.2H47.022V40.922ZM80.4341 51.236C82.2701 52.028 83.7281 53.252 84.8081 54.908C85.8881 56.528 86.4281 58.364 86.4281 60.416C86.4281 63.728 85.1501 66.32 82.5941 68.192C80.0741 70.064 76.5821 71 72.1181 71H53.4341V33.2H72.1181C76.1861 33.2 79.3901 34.1 81.7301 35.9C84.0701 37.7 85.2401 40.148 85.2401 43.244C85.2401 45.08 84.8081 46.7 83.9441 48.104C83.1161 49.472 81.9461 50.516 80.4341 51.236ZM62.1281 40.49V47.996H72.2801C73.6841 47.996 74.7641 47.672 75.5201 47.024C76.2761 46.376 76.6541 45.458 76.6541 44.27C76.6541 43.082 76.2581 42.164 75.4661 41.516C74.7101 40.832 73.6481 40.49 72.2801 40.49H62.1281ZM72.7121 63.548C74.2961 63.548 75.5201 63.17 76.3841 62.414C77.2841 61.658 77.7341 60.614 77.7341 59.282C77.7341 57.914 77.2841 56.87 76.3841 56.15C75.5201 55.394 74.2961 55.016 72.7121 55.016H62.1281V63.548H72.7121Z" fill="#5928E5"/>
<circle cx="88.5" cy="16.5" r="4.5" fill="#5928E5"/>
</svg>
