<svg width="158" height="158" viewBox="0 0 158 158" fill="none" xmlns="http://www.w3.org/2000/svg">
<g clip-path="url(#clip0_922_6700)">
<path d="M3.03984e-06 0.847174C0.467883 0.847174 0.847174 0.467883 0.847174 3.03984e-06C0.847174 -0.467877 0.467883 -0.847168 3.03984e-06 -0.847168C-0.467877 -0.847168 -0.847168 -0.467877 -0.847168 3.03984e-06C-0.847168 0.467883 -0.467877 0.847174 3.03984e-06 0.847174Z" fill="white"/>
<path d="M13.1665 0.847174C13.6344 0.847174 14.0137 0.467883 14.0137 3.03984e-06C14.0137 -0.467877 13.6344 -0.847168 13.1665 -0.847168C12.6986 -0.847168 12.3193 -0.467877 12.3193 3.03984e-06C12.3193 0.467883 12.6986 0.847174 13.1665 0.847174Z" fill="white"/>
<path d="M26.3335 0.847174C26.8014 0.847174 27.1807 0.467883 27.1807 3.03984e-06C27.1807 -0.467877 26.8014 -0.847168 26.3335 -0.847168C25.8656 -0.847168 25.4863 -0.467877 25.4863 3.03984e-06C25.4863 0.467883 25.8656 0.847174 26.3335 0.847174Z" fill="white"/>
<path d="M39.5 0.847174C39.9679 0.847174 40.3472 0.467883 40.3472 3.03984e-06C40.3472 -0.467877 39.9679 -0.847168 39.5 -0.847168C39.0321 -0.847168 38.6528 -0.467877 38.6528 3.03984e-06C38.6528 0.467883 39.0321 0.847174 39.5 0.847174Z" fill="white"/>
<path d="M52.6665 0.847174C53.1344 0.847174 53.5137 0.467883 53.5137 3.03984e-06C53.5137 -0.467877 53.1344 -0.847168 52.6665 -0.847168C52.1986 -0.847168 51.8193 -0.467877 51.8193 3.03984e-06C51.8193 0.467883 52.1986 0.847174 52.6665 0.847174Z" fill="white"/>
<path d="M65.8335 0.847174C66.3014 0.847174 66.6807 0.467883 66.6807 3.03984e-06C66.6807 -0.467877 66.3014 -0.847168 65.8335 -0.847168C65.3656 -0.847168 64.9863 -0.467877 64.9863 3.03984e-06C64.9863 0.467883 65.3656 0.847174 65.8335 0.847174Z" fill="white"/>
<path d="M79 0.847174C79.4679 0.847174 79.8472 0.467883 79.8472 3.03984e-06C79.8472 -0.467877 79.4679 -0.847168 79 -0.847168C78.5321 -0.847168 78.1528 -0.467877 78.1528 3.03984e-06C78.1528 0.467883 78.5321 0.847174 79 0.847174Z" fill="white"/>
<path d="M92.1665 0.847174C92.6344 0.847174 93.0137 0.467883 93.0137 3.03984e-06C93.0137 -0.467877 92.6344 -0.847168 92.1665 -0.847168C91.6986 -0.847168 91.3193 -0.467877 91.3193 3.03984e-06C91.3193 0.467883 91.6986 0.847174 92.1665 0.847174Z" fill="white"/>
<path d="M105.333 0.847174C105.801 0.847174 106.181 0.467883 106.181 3.03984e-06C106.181 -0.467877 105.801 -0.847168 105.333 -0.847168C104.866 -0.847168 104.486 -0.467877 104.486 3.03984e-06C104.486 0.467883 104.866 0.847174 105.333 0.847174Z" fill="white"/>
<path d="M118.5 0.847174C118.968 0.847174 119.347 0.467883 119.347 3.03984e-06C119.347 -0.467877 118.968 -0.847168 118.5 -0.847168C118.032 -0.847168 117.653 -0.467877 117.653 3.03984e-06C117.653 0.467883 118.032 0.847174 118.5 0.847174Z" fill="white"/>
<path d="M131.667 0.847174C132.134 0.847174 132.514 0.467883 132.514 3.03984e-06C132.514 -0.467877 132.134 -0.847168 131.667 -0.847168C131.199 -0.847168 130.819 -0.467877 130.819 3.03984e-06C130.819 0.467883 131.199 0.847174 131.667 0.847174Z" fill="white"/>
<path d="M144.833 0.847174C145.301 0.847174 145.681 0.467883 145.681 3.03984e-06C145.681 -0.467877 145.301 -0.847168 144.833 -0.847168C144.366 -0.847168 143.986 -0.467877 143.986 3.03984e-06C143.986 0.467883 144.366 0.847174 144.833 0.847174Z" fill="white"/>
<path d="M158 0.847174C158.468 0.847174 158.847 0.467883 158.847 3.03984e-06C158.847 -0.467877 158.468 -0.847168 158 -0.847168C157.532 -0.847168 157.153 -0.467877 157.153 3.03984e-06C157.153 0.467883 157.532 0.847174 158 0.847174Z" fill="white"/>
<path d="M3.03984e-06 14.0138C0.467883 14.0138 0.847174 13.6345 0.847174 13.1666C0.847174 12.6987 0.467883 12.3195 3.03984e-06 12.3195C-0.467877 12.3195 -0.847168 12.6987 -0.847168 13.1666C-0.847168 13.6345 -0.467877 14.0138 3.03984e-06 14.0138Z" fill="white"/>
<path d="M13.1665 14.0138C13.6344 14.0138 14.0137 13.6345 14.0137 13.1666C14.0137 12.6987 13.6344 12.3195 13.1665 12.3195C12.6986 12.3195 12.3193 12.6987 12.3193 13.1666C12.3193 13.6345 12.6986 14.0138 13.1665 14.0138Z" fill="white"/>
<path d="M26.3335 14.0138C26.8014 14.0138 27.1807 13.6345 27.1807 13.1666C27.1807 12.6987 26.8014 12.3195 26.3335 12.3195C25.8656 12.3195 25.4863 12.6987 25.4863 13.1666C25.4863 13.6345 25.8656 14.0138 26.3335 14.0138Z" fill="white"/>
<path d="M39.5 14.0138C39.9679 14.0138 40.3472 13.6345 40.3472 13.1666C40.3472 12.6987 39.9679 12.3195 39.5 12.3195C39.0321 12.3195 38.6528 12.6987 38.6528 13.1666C38.6528 13.6345 39.0321 14.0138 39.5 14.0138Z" fill="white"/>
<path d="M52.6665 14.0138C53.1344 14.0138 53.5137 13.6345 53.5137 13.1666C53.5137 12.6987 53.1344 12.3195 52.6665 12.3195C52.1986 12.3195 51.8193 12.6987 51.8193 13.1666C51.8193 13.6345 52.1986 14.0138 52.6665 14.0138Z" fill="white"/>
<path d="M65.8335 14.0138C66.3014 14.0138 66.6807 13.6345 66.6807 13.1666C66.6807 12.6987 66.3014 12.3195 65.8335 12.3195C65.3656 12.3195 64.9863 12.6987 64.9863 13.1666C64.9863 13.6345 65.3656 14.0138 65.8335 14.0138Z" fill="white"/>
<path d="M79 14.0138C79.4679 14.0138 79.8472 13.6345 79.8472 13.1666C79.8472 12.6987 79.4679 12.3195 79 12.3195C78.5321 12.3195 78.1528 12.6987 78.1528 13.1666C78.1528 13.6345 78.5321 14.0138 79 14.0138Z" fill="white"/>
<path d="M92.1665 14.0138C92.6344 14.0138 93.0137 13.6345 93.0137 13.1666C93.0137 12.6987 92.6344 12.3195 92.1665 12.3195C91.6986 12.3195 91.3193 12.6987 91.3193 13.1666C91.3193 13.6345 91.6986 14.0138 92.1665 14.0138Z" fill="white"/>
<path d="M105.333 14.0138C105.801 14.0138 106.181 13.6345 106.181 13.1666C106.181 12.6987 105.801 12.3195 105.333 12.3195C104.866 12.3195 104.486 12.6987 104.486 13.1666C104.486 13.6345 104.866 14.0138 105.333 14.0138Z" fill="white"/>
<path d="M118.5 14.0138C118.968 14.0138 119.347 13.6345 119.347 13.1666C119.347 12.6987 118.968 12.3195 118.5 12.3195C118.032 12.3195 117.653 12.6987 117.653 13.1666C117.653 13.6345 118.032 14.0138 118.5 14.0138Z" fill="white"/>
<path d="M131.667 14.0138C132.134 14.0138 132.514 13.6345 132.514 13.1666C132.514 12.6987 132.134 12.3195 131.667 12.3195C131.199 12.3195 130.819 12.6987 130.819 13.1666C130.819 13.6345 131.199 14.0138 131.667 14.0138Z" fill="white"/>
<path d="M144.833 14.0138C145.301 14.0138 145.681 13.6345 145.681 13.1666C145.681 12.6987 145.301 12.3195 144.833 12.3195C144.366 12.3195 143.986 12.6987 143.986 13.1666C143.986 13.6345 144.366 14.0138 144.833 14.0138Z" fill="white"/>
<path d="M158 14.0138C158.468 14.0138 158.847 13.6345 158.847 13.1666C158.847 12.6987 158.468 12.3195 158 12.3195C157.532 12.3195 157.153 12.6987 157.153 13.1666C157.153 13.6345 157.532 14.0138 158 14.0138Z" fill="white"/>
<path d="M3.03984e-06 27.1805C0.467883 27.1805 0.847174 26.8013 0.847174 26.3334C0.847174 25.8655 0.467883 25.4862 3.03984e-06 25.4862C-0.467877 25.4862 -0.847168 25.8655 -0.847168 26.3334C-0.847168 26.8013 -0.467877 27.1805 3.03984e-06 27.1805Z" fill="white"/>
<path d="M13.1665 27.1805C13.6344 27.1805 14.0137 26.8013 14.0137 26.3334C14.0137 25.8655 13.6344 25.4862 13.1665 25.4862C12.6986 25.4862 12.3193 25.8655 12.3193 26.3334C12.3193 26.8013 12.6986 27.1805 13.1665 27.1805Z" fill="white"/>
<path d="M26.3335 27.1805C26.8014 27.1805 27.1807 26.8013 27.1807 26.3334C27.1807 25.8655 26.8014 25.4862 26.3335 25.4862C25.8656 25.4862 25.4863 25.8655 25.4863 26.3334C25.4863 26.8013 25.8656 27.1805 26.3335 27.1805Z" fill="white"/>
<path d="M39.5 27.1805C39.9679 27.1805 40.3472 26.8013 40.3472 26.3334C40.3472 25.8655 39.9679 25.4862 39.5 25.4862C39.0321 25.4862 38.6528 25.8655 38.6528 26.3334C38.6528 26.8013 39.0321 27.1805 39.5 27.1805Z" fill="white"/>
<path d="M52.6665 27.1805C53.1344 27.1805 53.5137 26.8013 53.5137 26.3334C53.5137 25.8655 53.1344 25.4862 52.6665 25.4862C52.1986 25.4862 51.8193 25.8655 51.8193 26.3334C51.8193 26.8013 52.1986 27.1805 52.6665 27.1805Z" fill="white"/>
<path d="M65.8335 27.1805C66.3014 27.1805 66.6807 26.8013 66.6807 26.3334C66.6807 25.8655 66.3014 25.4862 65.8335 25.4862C65.3656 25.4862 64.9863 25.8655 64.9863 26.3334C64.9863 26.8013 65.3656 27.1805 65.8335 27.1805Z" fill="white"/>
<path d="M79 27.1805C79.4679 27.1805 79.8472 26.8013 79.8472 26.3334C79.8472 25.8655 79.4679 25.4862 79 25.4862C78.5321 25.4862 78.1528 25.8655 78.1528 26.3334C78.1528 26.8013 78.5321 27.1805 79 27.1805Z" fill="white"/>
<path d="M92.1665 27.1805C92.6344 27.1805 93.0137 26.8013 93.0137 26.3334C93.0137 25.8655 92.6344 25.4862 92.1665 25.4862C91.6986 25.4862 91.3193 25.8655 91.3193 26.3334C91.3193 26.8013 91.6986 27.1805 92.1665 27.1805Z" fill="white"/>
<path d="M105.333 27.1805C105.801 27.1805 106.181 26.8013 106.181 26.3334C106.181 25.8655 105.801 25.4862 105.333 25.4862C104.866 25.4862 104.486 25.8655 104.486 26.3334C104.486 26.8013 104.866 27.1805 105.333 27.1805Z" fill="white"/>
<path d="M118.5 27.1805C118.968 27.1805 119.347 26.8013 119.347 26.3334C119.347 25.8655 118.968 25.4862 118.5 25.4862C118.032 25.4862 117.653 25.8655 117.653 26.3334C117.653 26.8013 118.032 27.1805 118.5 27.1805Z" fill="white"/>
<path d="M131.667 27.1805C132.134 27.1805 132.514 26.8013 132.514 26.3334C132.514 25.8655 132.134 25.4862 131.667 25.4862C131.199 25.4862 130.819 25.8655 130.819 26.3334C130.819 26.8013 131.199 27.1805 131.667 27.1805Z" fill="white"/>
<path d="M144.833 27.1805C145.301 27.1805 145.681 26.8013 145.681 26.3334C145.681 25.8655 145.301 25.4862 144.833 25.4862C144.366 25.4862 143.986 25.8655 143.986 26.3334C143.986 26.8013 144.366 27.1805 144.833 27.1805Z" fill="white"/>
<path d="M158 27.1805C158.468 27.1805 158.847 26.8013 158.847 26.3334C158.847 25.8655 158.468 25.4862 158 25.4862C157.532 25.4862 157.153 25.8655 157.153 26.3334C157.153 26.8013 157.532 27.1805 158 27.1805Z" fill="white"/>
<path d="M3.03984e-06 40.3472C0.467883 40.3472 0.847174 39.9679 0.847174 39.5C0.847174 39.0321 0.467883 38.6528 3.03984e-06 38.6528C-0.467877 38.6528 -0.847168 39.0321 -0.847168 39.5C-0.847168 39.9679 -0.467877 40.3472 3.03984e-06 40.3472Z" fill="white"/>
<path d="M13.1665 40.3472C13.6344 40.3472 14.0137 39.9679 14.0137 39.5C14.0137 39.0321 13.6344 38.6528 13.1665 38.6528C12.6986 38.6528 12.3193 39.0321 12.3193 39.5C12.3193 39.9679 12.6986 40.3472 13.1665 40.3472Z" fill="white"/>
<path d="M26.3335 40.3472C26.8014 40.3472 27.1807 39.9679 27.1807 39.5C27.1807 39.0321 26.8014 38.6528 26.3335 38.6528C25.8656 38.6528 25.4863 39.0321 25.4863 39.5C25.4863 39.9679 25.8656 40.3472 26.3335 40.3472Z" fill="white"/>
<path d="M39.5 40.3472C39.9679 40.3472 40.3472 39.9679 40.3472 39.5C40.3472 39.0321 39.9679 38.6528 39.5 38.6528C39.0321 38.6528 38.6528 39.0321 38.6528 39.5C38.6528 39.9679 39.0321 40.3472 39.5 40.3472Z" fill="white"/>
<path d="M52.6665 40.3472C53.1344 40.3472 53.5137 39.9679 53.5137 39.5C53.5137 39.0321 53.1344 38.6528 52.6665 38.6528C52.1986 38.6528 51.8193 39.0321 51.8193 39.5C51.8193 39.9679 52.1986 40.3472 52.6665 40.3472Z" fill="white"/>
<path d="M65.8335 40.3472C66.3014 40.3472 66.6807 39.9679 66.6807 39.5C66.6807 39.0321 66.3014 38.6528 65.8335 38.6528C65.3656 38.6528 64.9863 39.0321 64.9863 39.5C64.9863 39.9679 65.3656 40.3472 65.8335 40.3472Z" fill="white"/>
<path d="M79 40.3472C79.4679 40.3472 79.8472 39.9679 79.8472 39.5C79.8472 39.0321 79.4679 38.6528 79 38.6528C78.5321 38.6528 78.1528 39.0321 78.1528 39.5C78.1528 39.9679 78.5321 40.3472 79 40.3472Z" fill="white"/>
<path d="M92.1665 40.3472C92.6344 40.3472 93.0137 39.9679 93.0137 39.5C93.0137 39.0321 92.6344 38.6528 92.1665 38.6528C91.6986 38.6528 91.3193 39.0321 91.3193 39.5C91.3193 39.9679 91.6986 40.3472 92.1665 40.3472Z" fill="white"/>
<path d="M105.333 40.3472C105.801 40.3472 106.181 39.9679 106.181 39.5C106.181 39.0321 105.801 38.6528 105.333 38.6528C104.866 38.6528 104.486 39.0321 104.486 39.5C104.486 39.9679 104.866 40.3472 105.333 40.3472Z" fill="white"/>
<path d="M118.5 40.3472C118.968 40.3472 119.347 39.9679 119.347 39.5C119.347 39.0321 118.968 38.6528 118.5 38.6528C118.032 38.6528 117.653 39.0321 117.653 39.5C117.653 39.9679 118.032 40.3472 118.5 40.3472Z" fill="white"/>
<path d="M131.667 40.3472C132.134 40.3472 132.514 39.9679 132.514 39.5C132.514 39.0321 132.134 38.6528 131.667 38.6528C131.199 38.6528 130.819 39.0321 130.819 39.5C130.819 39.9679 131.199 40.3472 131.667 40.3472Z" fill="white"/>
<path d="M144.833 40.3472C145.301 40.3472 145.681 39.9679 145.681 39.5C145.681 39.0321 145.301 38.6528 144.833 38.6528C144.366 38.6528 143.986 39.0321 143.986 39.5C143.986 39.9679 144.366 40.3472 144.833 40.3472Z" fill="white"/>
<path d="M158 40.3472C158.468 40.3472 158.847 39.9679 158.847 39.5C158.847 39.0321 158.468 38.6528 158 38.6528C157.532 38.6528 157.153 39.0321 157.153 39.5C157.153 39.9679 157.532 40.3472 158 40.3472Z" fill="white"/>
<path d="M3.03984e-06 53.5138C0.467883 53.5138 0.847174 53.1345 0.847174 52.6666C0.847174 52.1987 0.467883 51.8195 3.03984e-06 51.8195C-0.467877 51.8195 -0.847168 52.1987 -0.847168 52.6666C-0.847168 53.1345 -0.467877 53.5138 3.03984e-06 53.5138Z" fill="white"/>
<path d="M13.1665 53.5138C13.6344 53.5138 14.0137 53.1345 14.0137 52.6666C14.0137 52.1987 13.6344 51.8195 13.1665 51.8195C12.6986 51.8195 12.3193 52.1987 12.3193 52.6666C12.3193 53.1345 12.6986 53.5138 13.1665 53.5138Z" fill="white"/>
<path d="M26.3335 53.5138C26.8014 53.5138 27.1807 53.1345 27.1807 52.6666C27.1807 52.1987 26.8014 51.8195 26.3335 51.8195C25.8656 51.8195 25.4863 52.1987 25.4863 52.6666C25.4863 53.1345 25.8656 53.5138 26.3335 53.5138Z" fill="white"/>
<path d="M39.5 53.5138C39.9679 53.5138 40.3472 53.1345 40.3472 52.6666C40.3472 52.1987 39.9679 51.8195 39.5 51.8195C39.0321 51.8195 38.6528 52.1987 38.6528 52.6666C38.6528 53.1345 39.0321 53.5138 39.5 53.5138Z" fill="white"/>
<path d="M52.6665 53.5138C53.1344 53.5138 53.5137 53.1345 53.5137 52.6666C53.5137 52.1987 53.1344 51.8195 52.6665 51.8195C52.1986 51.8195 51.8193 52.1987 51.8193 52.6666C51.8193 53.1345 52.1986 53.5138 52.6665 53.5138Z" fill="white"/>
<path d="M65.8335 53.5138C66.3014 53.5138 66.6807 53.1345 66.6807 52.6666C66.6807 52.1987 66.3014 51.8195 65.8335 51.8195C65.3656 51.8195 64.9863 52.1987 64.9863 52.6666C64.9863 53.1345 65.3656 53.5138 65.8335 53.5138Z" fill="white"/>
<path d="M79 53.5138C79.4679 53.5138 79.8472 53.1345 79.8472 52.6666C79.8472 52.1987 79.4679 51.8195 79 51.8195C78.5321 51.8195 78.1528 52.1987 78.1528 52.6666C78.1528 53.1345 78.5321 53.5138 79 53.5138Z" fill="white"/>
<path d="M92.1665 53.5138C92.6344 53.5138 93.0137 53.1345 93.0137 52.6666C93.0137 52.1987 92.6344 51.8195 92.1665 51.8195C91.6986 51.8195 91.3193 52.1987 91.3193 52.6666C91.3193 53.1345 91.6986 53.5138 92.1665 53.5138Z" fill="white"/>
<path d="M105.333 53.5138C105.801 53.5138 106.181 53.1345 106.181 52.6666C106.181 52.1987 105.801 51.8195 105.333 51.8195C104.866 51.8195 104.486 52.1987 104.486 52.6666C104.486 53.1345 104.866 53.5138 105.333 53.5138Z" fill="white"/>
<path d="M118.5 53.5138C118.968 53.5138 119.347 53.1345 119.347 52.6666C119.347 52.1987 118.968 51.8195 118.5 51.8195C118.032 51.8195 117.653 52.1987 117.653 52.6666C117.653 53.1345 118.032 53.5138 118.5 53.5138Z" fill="white"/>
<path d="M131.667 53.5138C132.134 53.5138 132.514 53.1345 132.514 52.6666C132.514 52.1987 132.134 51.8195 131.667 51.8195C131.199 51.8195 130.819 52.1987 130.819 52.6666C130.819 53.1345 131.199 53.5138 131.667 53.5138Z" fill="white"/>
<path d="M144.833 53.5138C145.301 53.5138 145.681 53.1345 145.681 52.6666C145.681 52.1987 145.301 51.8195 144.833 51.8195C144.366 51.8195 143.986 52.1987 143.986 52.6666C143.986 53.1345 144.366 53.5138 144.833 53.5138Z" fill="white"/>
<path d="M158 53.5138C158.468 53.5138 158.847 53.1345 158.847 52.6666C158.847 52.1987 158.468 51.8195 158 51.8195C157.532 51.8195 157.153 52.1987 157.153 52.6666C157.153 53.1345 157.532 53.5138 158 53.5138Z" fill="white"/>
<path d="M3.03984e-06 66.6805C0.467883 66.6805 0.847174 66.3013 0.847174 65.8334C0.847174 65.3655 0.467883 64.9862 3.03984e-06 64.9862C-0.467877 64.9862 -0.847168 65.3655 -0.847168 65.8334C-0.847168 66.3013 -0.467877 66.6805 3.03984e-06 66.6805Z" fill="white"/>
<path d="M13.1665 66.6805C13.6344 66.6805 14.0137 66.3013 14.0137 65.8334C14.0137 65.3655 13.6344 64.9862 13.1665 64.9862C12.6986 64.9862 12.3193 65.3655 12.3193 65.8334C12.3193 66.3013 12.6986 66.6805 13.1665 66.6805Z" fill="white"/>
<path d="M26.3335 66.6805C26.8014 66.6805 27.1807 66.3013 27.1807 65.8334C27.1807 65.3655 26.8014 64.9862 26.3335 64.9862C25.8656 64.9862 25.4863 65.3655 25.4863 65.8334C25.4863 66.3013 25.8656 66.6805 26.3335 66.6805Z" fill="white"/>
<path d="M39.5 66.6805C39.9679 66.6805 40.3472 66.3013 40.3472 65.8334C40.3472 65.3655 39.9679 64.9862 39.5 64.9862C39.0321 64.9862 38.6528 65.3655 38.6528 65.8334C38.6528 66.3013 39.0321 66.6805 39.5 66.6805Z" fill="white"/>
<path d="M52.6665 66.6805C53.1344 66.6805 53.5137 66.3013 53.5137 65.8334C53.5137 65.3655 53.1344 64.9862 52.6665 64.9862C52.1986 64.9862 51.8193 65.3655 51.8193 65.8334C51.8193 66.3013 52.1986 66.6805 52.6665 66.6805Z" fill="white"/>
<path d="M65.8335 66.6805C66.3014 66.6805 66.6807 66.3013 66.6807 65.8334C66.6807 65.3655 66.3014 64.9862 65.8335 64.9862C65.3656 64.9862 64.9863 65.3655 64.9863 65.8334C64.9863 66.3013 65.3656 66.6805 65.8335 66.6805Z" fill="white"/>
<path d="M79 66.6805C79.4679 66.6805 79.8472 66.3013 79.8472 65.8334C79.8472 65.3655 79.4679 64.9862 79 64.9862C78.5321 64.9862 78.1528 65.3655 78.1528 65.8334C78.1528 66.3013 78.5321 66.6805 79 66.6805Z" fill="white"/>
<path d="M92.1665 66.6805C92.6344 66.6805 93.0137 66.3013 93.0137 65.8334C93.0137 65.3655 92.6344 64.9862 92.1665 64.9862C91.6986 64.9862 91.3193 65.3655 91.3193 65.8334C91.3193 66.3013 91.6986 66.6805 92.1665 66.6805Z" fill="white"/>
<path d="M105.333 66.6805C105.801 66.6805 106.181 66.3013 106.181 65.8334C106.181 65.3655 105.801 64.9862 105.333 64.9862C104.866 64.9862 104.486 65.3655 104.486 65.8334C104.486 66.3013 104.866 66.6805 105.333 66.6805Z" fill="white"/>
<path d="M118.5 66.6805C118.968 66.6805 119.347 66.3013 119.347 65.8334C119.347 65.3655 118.968 64.9862 118.5 64.9862C118.032 64.9862 117.653 65.3655 117.653 65.8334C117.653 66.3013 118.032 66.6805 118.5 66.6805Z" fill="white"/>
<path d="M131.667 66.6805C132.134 66.6805 132.514 66.3013 132.514 65.8334C132.514 65.3655 132.134 64.9862 131.667 64.9862C131.199 64.9862 130.819 65.3655 130.819 65.8334C130.819 66.3013 131.199 66.6805 131.667 66.6805Z" fill="white"/>
<path d="M144.833 66.6805C145.301 66.6805 145.681 66.3013 145.681 65.8334C145.681 65.3655 145.301 64.9862 144.833 64.9862C144.366 64.9862 143.986 65.3655 143.986 65.8334C143.986 66.3013 144.366 66.6805 144.833 66.6805Z" fill="white"/>
<path d="M158 66.6805C158.468 66.6805 158.847 66.3013 158.847 65.8334C158.847 65.3655 158.468 64.9862 158 64.9862C157.532 64.9862 157.153 65.3655 157.153 65.8334C157.153 66.3013 157.532 66.6805 158 66.6805Z" fill="white"/>
<path d="M3.03984e-06 79.8472C0.467883 79.8472 0.847174 79.4679 0.847174 79C0.847174 78.5321 0.467883 78.1528 3.03984e-06 78.1528C-0.467877 78.1528 -0.847168 78.5321 -0.847168 79C-0.847168 79.4679 -0.467877 79.8472 3.03984e-06 79.8472Z" fill="white"/>
<path d="M13.1665 79.8472C13.6344 79.8472 14.0137 79.4679 14.0137 79C14.0137 78.5321 13.6344 78.1528 13.1665 78.1528C12.6986 78.1528 12.3193 78.5321 12.3193 79C12.3193 79.4679 12.6986 79.8472 13.1665 79.8472Z" fill="white"/>
<path d="M26.3335 79.8472C26.8014 79.8472 27.1807 79.4679 27.1807 79C27.1807 78.5321 26.8014 78.1528 26.3335 78.1528C25.8656 78.1528 25.4863 78.5321 25.4863 79C25.4863 79.4679 25.8656 79.8472 26.3335 79.8472Z" fill="white"/>
<path d="M39.5 79.8472C39.9679 79.8472 40.3472 79.4679 40.3472 79C40.3472 78.5321 39.9679 78.1528 39.5 78.1528C39.0321 78.1528 38.6528 78.5321 38.6528 79C38.6528 79.4679 39.0321 79.8472 39.5 79.8472Z" fill="white"/>
<path d="M52.6665 79.8472C53.1344 79.8472 53.5137 79.4679 53.5137 79C53.5137 78.5321 53.1344 78.1528 52.6665 78.1528C52.1986 78.1528 51.8193 78.5321 51.8193 79C51.8193 79.4679 52.1986 79.8472 52.6665 79.8472Z" fill="white"/>
<path d="M65.8335 79.8472C66.3014 79.8472 66.6807 79.4679 66.6807 79C66.6807 78.5321 66.3014 78.1528 65.8335 78.1528C65.3656 78.1528 64.9863 78.5321 64.9863 79C64.9863 79.4679 65.3656 79.8472 65.8335 79.8472Z" fill="white"/>
<path d="M79 79.8472C79.4679 79.8472 79.8472 79.4679 79.8472 79C79.8472 78.5321 79.4679 78.1528 79 78.1528C78.5321 78.1528 78.1528 78.5321 78.1528 79C78.1528 79.4679 78.5321 79.8472 79 79.8472Z" fill="white"/>
<path d="M92.1665 79.8472C92.6344 79.8472 93.0137 79.4679 93.0137 79C93.0137 78.5321 92.6344 78.1528 92.1665 78.1528C91.6986 78.1528 91.3193 78.5321 91.3193 79C91.3193 79.4679 91.6986 79.8472 92.1665 79.8472Z" fill="white"/>
<path d="M105.333 79.8472C105.801 79.8472 106.181 79.4679 106.181 79C106.181 78.5321 105.801 78.1528 105.333 78.1528C104.866 78.1528 104.486 78.5321 104.486 79C104.486 79.4679 104.866 79.8472 105.333 79.8472Z" fill="white"/>
<path d="M118.5 79.8472C118.968 79.8472 119.347 79.4679 119.347 79C119.347 78.5321 118.968 78.1528 118.5 78.1528C118.032 78.1528 117.653 78.5321 117.653 79C117.653 79.4679 118.032 79.8472 118.5 79.8472Z" fill="white"/>
<path d="M131.667 79.8472C132.134 79.8472 132.514 79.4679 132.514 79C132.514 78.5321 132.134 78.1528 131.667 78.1528C131.199 78.1528 130.819 78.5321 130.819 79C130.819 79.4679 131.199 79.8472 131.667 79.8472Z" fill="white"/>
<path d="M144.833 79.8472C145.301 79.8472 145.681 79.4679 145.681 79C145.681 78.5321 145.301 78.1528 144.833 78.1528C144.366 78.1528 143.986 78.5321 143.986 79C143.986 79.4679 144.366 79.8472 144.833 79.8472Z" fill="white"/>
<path d="M158 79.8472C158.468 79.8472 158.847 79.4679 158.847 79C158.847 78.5321 158.468 78.1528 158 78.1528C157.532 78.1528 157.153 78.5321 157.153 79C157.153 79.4679 157.532 79.8472 158 79.8472Z" fill="white"/>
<path d="M3.03984e-06 93.0138C0.467883 93.0138 0.847174 92.6345 0.847174 92.1666C0.847174 91.6987 0.467883 91.3195 3.03984e-06 91.3195C-0.467877 91.3195 -0.847168 91.6987 -0.847168 92.1666C-0.847168 92.6345 -0.467877 93.0138 3.03984e-06 93.0138Z" fill="white"/>
<path d="M13.1665 93.0138C13.6344 93.0138 14.0137 92.6345 14.0137 92.1666C14.0137 91.6987 13.6344 91.3195 13.1665 91.3195C12.6986 91.3195 12.3193 91.6987 12.3193 92.1666C12.3193 92.6345 12.6986 93.0138 13.1665 93.0138Z" fill="white"/>
<path d="M26.3335 93.0138C26.8014 93.0138 27.1807 92.6345 27.1807 92.1666C27.1807 91.6987 26.8014 91.3195 26.3335 91.3195C25.8656 91.3195 25.4863 91.6987 25.4863 92.1666C25.4863 92.6345 25.8656 93.0138 26.3335 93.0138Z" fill="white"/>
<path d="M39.5 93.0138C39.9679 93.0138 40.3472 92.6345 40.3472 92.1666C40.3472 91.6987 39.9679 91.3195 39.5 91.3195C39.0321 91.3195 38.6528 91.6987 38.6528 92.1666C38.6528 92.6345 39.0321 93.0138 39.5 93.0138Z" fill="white"/>
<path d="M52.6665 93.0138C53.1344 93.0138 53.5137 92.6345 53.5137 92.1666C53.5137 91.6987 53.1344 91.3195 52.6665 91.3195C52.1986 91.3195 51.8193 91.6987 51.8193 92.1666C51.8193 92.6345 52.1986 93.0138 52.6665 93.0138Z" fill="white"/>
<path d="M65.8335 93.0138C66.3014 93.0138 66.6807 92.6345 66.6807 92.1666C66.6807 91.6987 66.3014 91.3195 65.8335 91.3195C65.3656 91.3195 64.9863 91.6987 64.9863 92.1666C64.9863 92.6345 65.3656 93.0138 65.8335 93.0138Z" fill="white"/>
<path d="M79 93.0138C79.4679 93.0138 79.8472 92.6345 79.8472 92.1666C79.8472 91.6987 79.4679 91.3195 79 91.3195C78.5321 91.3195 78.1528 91.6987 78.1528 92.1666C78.1528 92.6345 78.5321 93.0138 79 93.0138Z" fill="white"/>
<path d="M92.1665 93.0138C92.6344 93.0138 93.0137 92.6345 93.0137 92.1666C93.0137 91.6987 92.6344 91.3195 92.1665 91.3195C91.6986 91.3195 91.3193 91.6987 91.3193 92.1666C91.3193 92.6345 91.6986 93.0138 92.1665 93.0138Z" fill="white"/>
<path d="M105.333 93.0138C105.801 93.0138 106.181 92.6345 106.181 92.1666C106.181 91.6987 105.801 91.3195 105.333 91.3195C104.866 91.3195 104.486 91.6987 104.486 92.1666C104.486 92.6345 104.866 93.0138 105.333 93.0138Z" fill="white"/>
<path d="M118.5 93.0138C118.968 93.0138 119.347 92.6345 119.347 92.1666C119.347 91.6987 118.968 91.3195 118.5 91.3195C118.032 91.3195 117.653 91.6987 117.653 92.1666C117.653 92.6345 118.032 93.0138 118.5 93.0138Z" fill="white"/>
<path d="M131.667 93.0138C132.134 93.0138 132.514 92.6345 132.514 92.1666C132.514 91.6987 132.134 91.3195 131.667 91.3195C131.199 91.3195 130.819 91.6987 130.819 92.1666C130.819 92.6345 131.199 93.0138 131.667 93.0138Z" fill="white"/>
<path d="M144.833 93.0138C145.301 93.0138 145.681 92.6345 145.681 92.1666C145.681 91.6987 145.301 91.3195 144.833 91.3195C144.366 91.3195 143.986 91.6987 143.986 92.1666C143.986 92.6345 144.366 93.0138 144.833 93.0138Z" fill="white"/>
<path d="M158 93.0138C158.468 93.0138 158.847 92.6345 158.847 92.1666C158.847 91.6987 158.468 91.3195 158 91.3195C157.532 91.3195 157.153 91.6987 157.153 92.1666C157.153 92.6345 157.532 93.0138 158 93.0138Z" fill="white"/>
<path d="M3.03984e-06 106.181C0.467883 106.181 0.847174 105.801 0.847174 105.333C0.847174 104.865 0.467883 104.486 3.03984e-06 104.486C-0.467877 104.486 -0.847168 104.865 -0.847168 105.333C-0.847168 105.801 -0.467877 106.181 3.03984e-06 106.181Z" fill="white"/>
<path d="M13.1665 106.181C13.6344 106.181 14.0137 105.801 14.0137 105.333C14.0137 104.865 13.6344 104.486 13.1665 104.486C12.6986 104.486 12.3193 104.865 12.3193 105.333C12.3193 105.801 12.6986 106.181 13.1665 106.181Z" fill="white"/>
<path d="M26.3335 106.181C26.8014 106.181 27.1807 105.801 27.1807 105.333C27.1807 104.865 26.8014 104.486 26.3335 104.486C25.8656 104.486 25.4863 104.865 25.4863 105.333C25.4863 105.801 25.8656 106.181 26.3335 106.181Z" fill="white"/>
<path d="M39.5 106.181C39.9679 106.181 40.3472 105.801 40.3472 105.333C40.3472 104.865 39.9679 104.486 39.5 104.486C39.0321 104.486 38.6528 104.865 38.6528 105.333C38.6528 105.801 39.0321 106.181 39.5 106.181Z" fill="white"/>
<path d="M52.6665 106.181C53.1344 106.181 53.5137 105.801 53.5137 105.333C53.5137 104.865 53.1344 104.486 52.6665 104.486C52.1986 104.486 51.8193 104.865 51.8193 105.333C51.8193 105.801 52.1986 106.181 52.6665 106.181Z" fill="white"/>
<path d="M65.8335 106.181C66.3014 106.181 66.6807 105.801 66.6807 105.333C66.6807 104.865 66.3014 104.486 65.8335 104.486C65.3656 104.486 64.9863 104.865 64.9863 105.333C64.9863 105.801 65.3656 106.181 65.8335 106.181Z" fill="white"/>
<path d="M79 106.181C79.4679 106.181 79.8472 105.801 79.8472 105.333C79.8472 104.865 79.4679 104.486 79 104.486C78.5321 104.486 78.1528 104.865 78.1528 105.333C78.1528 105.801 78.5321 106.181 79 106.181Z" fill="white"/>
<path d="M92.1665 106.181C92.6344 106.181 93.0137 105.801 93.0137 105.333C93.0137 104.865 92.6344 104.486 92.1665 104.486C91.6986 104.486 91.3193 104.865 91.3193 105.333C91.3193 105.801 91.6986 106.181 92.1665 106.181Z" fill="white"/>
<path d="M105.333 106.181C105.801 106.181 106.181 105.801 106.181 105.333C106.181 104.865 105.801 104.486 105.333 104.486C104.866 104.486 104.486 104.865 104.486 105.333C104.486 105.801 104.866 106.181 105.333 106.181Z" fill="white"/>
<path d="M118.5 106.181C118.968 106.181 119.347 105.801 119.347 105.333C119.347 104.865 118.968 104.486 118.5 104.486C118.032 104.486 117.653 104.865 117.653 105.333C117.653 105.801 118.032 106.181 118.5 106.181Z" fill="white"/>
<path d="M131.667 106.181C132.134 106.181 132.514 105.801 132.514 105.333C132.514 104.865 132.134 104.486 131.667 104.486C131.199 104.486 130.819 104.865 130.819 105.333C130.819 105.801 131.199 106.181 131.667 106.181Z" fill="white"/>
<path d="M144.833 106.181C145.301 106.181 145.681 105.801 145.681 105.333C145.681 104.865 145.301 104.486 144.833 104.486C144.366 104.486 143.986 104.865 143.986 105.333C143.986 105.801 144.366 106.181 144.833 106.181Z" fill="white"/>
<path d="M158 106.181C158.468 106.181 158.847 105.801 158.847 105.333C158.847 104.865 158.468 104.486 158 104.486C157.532 104.486 157.153 104.865 157.153 105.333C157.153 105.801 157.532 106.181 158 106.181Z" fill="white"/>
<path d="M3.03984e-06 119.347C0.467883 119.347 0.847174 118.968 0.847174 118.5C0.847174 118.032 0.467883 117.653 3.03984e-06 117.653C-0.467877 117.653 -0.847168 118.032 -0.847168 118.5C-0.847168 118.968 -0.467877 119.347 3.03984e-06 119.347Z" fill="white"/>
<path d="M13.1665 119.347C13.6344 119.347 14.0137 118.968 14.0137 118.5C14.0137 118.032 13.6344 117.653 13.1665 117.653C12.6986 117.653 12.3193 118.032 12.3193 118.5C12.3193 118.968 12.6986 119.347 13.1665 119.347Z" fill="white"/>
<path d="M26.3335 119.347C26.8014 119.347 27.1807 118.968 27.1807 118.5C27.1807 118.032 26.8014 117.653 26.3335 117.653C25.8656 117.653 25.4863 118.032 25.4863 118.5C25.4863 118.968 25.8656 119.347 26.3335 119.347Z" fill="white"/>
<path d="M39.5 119.347C39.9679 119.347 40.3472 118.968 40.3472 118.5C40.3472 118.032 39.9679 117.653 39.5 117.653C39.0321 117.653 38.6528 118.032 38.6528 118.5C38.6528 118.968 39.0321 119.347 39.5 119.347Z" fill="white"/>
<path d="M52.6665 119.347C53.1344 119.347 53.5137 118.968 53.5137 118.5C53.5137 118.032 53.1344 117.653 52.6665 117.653C52.1986 117.653 51.8193 118.032 51.8193 118.5C51.8193 118.968 52.1986 119.347 52.6665 119.347Z" fill="white"/>
<path d="M65.8335 119.347C66.3014 119.347 66.6807 118.968 66.6807 118.5C66.6807 118.032 66.3014 117.653 65.8335 117.653C65.3656 117.653 64.9863 118.032 64.9863 118.5C64.9863 118.968 65.3656 119.347 65.8335 119.347Z" fill="white"/>
<path d="M79 119.347C79.4679 119.347 79.8472 118.968 79.8472 118.5C79.8472 118.032 79.4679 117.653 79 117.653C78.5321 117.653 78.1528 118.032 78.1528 118.5C78.1528 118.968 78.5321 119.347 79 119.347Z" fill="white"/>
<path d="M92.1665 119.347C92.6344 119.347 93.0137 118.968 93.0137 118.5C93.0137 118.032 92.6344 117.653 92.1665 117.653C91.6986 117.653 91.3193 118.032 91.3193 118.5C91.3193 118.968 91.6986 119.347 92.1665 119.347Z" fill="white"/>
<path d="M105.333 119.347C105.801 119.347 106.181 118.968 106.181 118.5C106.181 118.032 105.801 117.653 105.333 117.653C104.866 117.653 104.486 118.032 104.486 118.5C104.486 118.968 104.866 119.347 105.333 119.347Z" fill="white"/>
<path d="M118.5 119.347C118.968 119.347 119.347 118.968 119.347 118.5C119.347 118.032 118.968 117.653 118.5 117.653C118.032 117.653 117.653 118.032 117.653 118.5C117.653 118.968 118.032 119.347 118.5 119.347Z" fill="white"/>
<path d="M131.667 119.347C132.134 119.347 132.514 118.968 132.514 118.5C132.514 118.032 132.134 117.653 131.667 117.653C131.199 117.653 130.819 118.032 130.819 118.5C130.819 118.968 131.199 119.347 131.667 119.347Z" fill="white"/>
<path d="M144.833 119.347C145.301 119.347 145.681 118.968 145.681 118.5C145.681 118.032 145.301 117.653 144.833 117.653C144.366 117.653 143.986 118.032 143.986 118.5C143.986 118.968 144.366 119.347 144.833 119.347Z" fill="white"/>
<path d="M158 119.347C158.468 119.347 158.847 118.968 158.847 118.5C158.847 118.032 158.468 117.653 158 117.653C157.532 117.653 157.153 118.032 157.153 118.5C157.153 118.968 157.532 119.347 158 119.347Z" fill="white"/>
<path d="M3.03984e-06 132.514C0.467883 132.514 0.847174 132.135 0.847174 131.667C0.847174 131.199 0.467883 130.819 3.03984e-06 130.819C-0.467877 130.819 -0.847168 131.199 -0.847168 131.667C-0.847168 132.135 -0.467877 132.514 3.03984e-06 132.514Z" fill="white"/>
<path d="M13.1665 132.514C13.6344 132.514 14.0137 132.135 14.0137 131.667C14.0137 131.199 13.6344 130.819 13.1665 130.819C12.6986 130.819 12.3193 131.199 12.3193 131.667C12.3193 132.135 12.6986 132.514 13.1665 132.514Z" fill="white"/>
<path d="M26.3335 132.514C26.8014 132.514 27.1807 132.135 27.1807 131.667C27.1807 131.199 26.8014 130.819 26.3335 130.819C25.8656 130.819 25.4863 131.199 25.4863 131.667C25.4863 132.135 25.8656 132.514 26.3335 132.514Z" fill="white"/>
<path d="M39.5 132.514C39.9679 132.514 40.3472 132.135 40.3472 131.667C40.3472 131.199 39.9679 130.819 39.5 130.819C39.0321 130.819 38.6528 131.199 38.6528 131.667C38.6528 132.135 39.0321 132.514 39.5 132.514Z" fill="white"/>
<path d="M52.6665 132.514C53.1344 132.514 53.5137 132.135 53.5137 131.667C53.5137 131.199 53.1344 130.819 52.6665 130.819C52.1986 130.819 51.8193 131.199 51.8193 131.667C51.8193 132.135 52.1986 132.514 52.6665 132.514Z" fill="white"/>
<path d="M65.8335 132.514C66.3014 132.514 66.6807 132.135 66.6807 131.667C66.6807 131.199 66.3014 130.819 65.8335 130.819C65.3656 130.819 64.9863 131.199 64.9863 131.667C64.9863 132.135 65.3656 132.514 65.8335 132.514Z" fill="white"/>
<path d="M79 132.514C79.4679 132.514 79.8472 132.135 79.8472 131.667C79.8472 131.199 79.4679 130.819 79 130.819C78.5321 130.819 78.1528 131.199 78.1528 131.667C78.1528 132.135 78.5321 132.514 79 132.514Z" fill="white"/>
<path d="M92.1665 132.514C92.6344 132.514 93.0137 132.135 93.0137 131.667C93.0137 131.199 92.6344 130.819 92.1665 130.819C91.6986 130.819 91.3193 131.199 91.3193 131.667C91.3193 132.135 91.6986 132.514 92.1665 132.514Z" fill="white"/>
<path d="M105.333 132.514C105.801 132.514 106.181 132.135 106.181 131.667C106.181 131.199 105.801 130.819 105.333 130.819C104.866 130.819 104.486 131.199 104.486 131.667C104.486 132.135 104.866 132.514 105.333 132.514Z" fill="white"/>
<path d="M118.5 132.514C118.968 132.514 119.347 132.135 119.347 131.667C119.347 131.199 118.968 130.819 118.5 130.819C118.032 130.819 117.653 131.199 117.653 131.667C117.653 132.135 118.032 132.514 118.5 132.514Z" fill="white"/>
<path d="M131.667 132.514C132.134 132.514 132.514 132.135 132.514 131.667C132.514 131.199 132.134 130.819 131.667 130.819C131.199 130.819 130.819 131.199 130.819 131.667C130.819 132.135 131.199 132.514 131.667 132.514Z" fill="white"/>
<path d="M144.833 132.514C145.301 132.514 145.681 132.135 145.681 131.667C145.681 131.199 145.301 130.819 144.833 130.819C144.366 130.819 143.986 131.199 143.986 131.667C143.986 132.135 144.366 132.514 144.833 132.514Z" fill="white"/>
<path d="M158 132.514C158.468 132.514 158.847 132.135 158.847 131.667C158.847 131.199 158.468 130.819 158 130.819C157.532 130.819 157.153 131.199 157.153 131.667C157.153 132.135 157.532 132.514 158 132.514Z" fill="white"/>
<path d="M3.03984e-06 145.681C0.467883 145.681 0.847174 145.301 0.847174 144.833C0.847174 144.365 0.467883 143.986 3.03984e-06 143.986C-0.467877 143.986 -0.847168 144.365 -0.847168 144.833C-0.847168 145.301 -0.467877 145.681 3.03984e-06 145.681Z" fill="white"/>
<path d="M13.1665 145.681C13.6344 145.681 14.0137 145.301 14.0137 144.833C14.0137 144.365 13.6344 143.986 13.1665 143.986C12.6986 143.986 12.3193 144.365 12.3193 144.833C12.3193 145.301 12.6986 145.681 13.1665 145.681Z" fill="white"/>
<path d="M26.3335 145.681C26.8014 145.681 27.1807 145.301 27.1807 144.833C27.1807 144.365 26.8014 143.986 26.3335 143.986C25.8656 143.986 25.4863 144.365 25.4863 144.833C25.4863 145.301 25.8656 145.681 26.3335 145.681Z" fill="white"/>
<path d="M39.5 145.681C39.9679 145.681 40.3472 145.301 40.3472 144.833C40.3472 144.365 39.9679 143.986 39.5 143.986C39.0321 143.986 38.6528 144.365 38.6528 144.833C38.6528 145.301 39.0321 145.681 39.5 145.681Z" fill="white"/>
<path d="M52.6665 145.681C53.1344 145.681 53.5137 145.301 53.5137 144.833C53.5137 144.365 53.1344 143.986 52.6665 143.986C52.1986 143.986 51.8193 144.365 51.8193 144.833C51.8193 145.301 52.1986 145.681 52.6665 145.681Z" fill="white"/>
<path d="M65.8335 145.681C66.3014 145.681 66.6807 145.301 66.6807 144.833C66.6807 144.365 66.3014 143.986 65.8335 143.986C65.3656 143.986 64.9863 144.365 64.9863 144.833C64.9863 145.301 65.3656 145.681 65.8335 145.681Z" fill="white"/>
<path d="M79 145.681C79.4679 145.681 79.8472 145.301 79.8472 144.833C79.8472 144.365 79.4679 143.986 79 143.986C78.5321 143.986 78.1528 144.365 78.1528 144.833C78.1528 145.301 78.5321 145.681 79 145.681Z" fill="white"/>
<path d="M92.1665 145.681C92.6344 145.681 93.0137 145.301 93.0137 144.833C93.0137 144.365 92.6344 143.986 92.1665 143.986C91.6986 143.986 91.3193 144.365 91.3193 144.833C91.3193 145.301 91.6986 145.681 92.1665 145.681Z" fill="white"/>
<path d="M105.333 145.681C105.801 145.681 106.181 145.301 106.181 144.833C106.181 144.365 105.801 143.986 105.333 143.986C104.866 143.986 104.486 144.365 104.486 144.833C104.486 145.301 104.866 145.681 105.333 145.681Z" fill="white"/>
<path d="M118.5 145.681C118.968 145.681 119.347 145.301 119.347 144.833C119.347 144.365 118.968 143.986 118.5 143.986C118.032 143.986 117.653 144.365 117.653 144.833C117.653 145.301 118.032 145.681 118.5 145.681Z" fill="white"/>
<path d="M131.667 145.681C132.134 145.681 132.514 145.301 132.514 144.833C132.514 144.365 132.134 143.986 131.667 143.986C131.199 143.986 130.819 144.365 130.819 144.833C130.819 145.301 131.199 145.681 131.667 145.681Z" fill="white"/>
<path d="M144.833 145.681C145.301 145.681 145.681 145.301 145.681 144.833C145.681 144.365 145.301 143.986 144.833 143.986C144.366 143.986 143.986 144.365 143.986 144.833C143.986 145.301 144.366 145.681 144.833 145.681Z" fill="white"/>
<path d="M158 145.681C158.468 145.681 158.847 145.301 158.847 144.833C158.847 144.365 158.468 143.986 158 143.986C157.532 143.986 157.153 144.365 157.153 144.833C157.153 145.301 157.532 145.681 158 145.681Z" fill="white"/>
<path d="M3.03984e-06 158.847C0.467883 158.847 0.847174 158.468 0.847174 158C0.847174 157.532 0.467883 157.153 3.03984e-06 157.153C-0.467877 157.153 -0.847168 157.532 -0.847168 158C-0.847168 158.468 -0.467877 158.847 3.03984e-06 158.847Z" fill="white"/>
<path d="M13.1665 158.847C13.6344 158.847 14.0137 158.468 14.0137 158C14.0137 157.532 13.6344 157.153 13.1665 157.153C12.6986 157.153 12.3193 157.532 12.3193 158C12.3193 158.468 12.6986 158.847 13.1665 158.847Z" fill="white"/>
<path d="M26.3335 158.847C26.8014 158.847 27.1807 158.468 27.1807 158C27.1807 157.532 26.8014 157.153 26.3335 157.153C25.8656 157.153 25.4863 157.532 25.4863 158C25.4863 158.468 25.8656 158.847 26.3335 158.847Z" fill="white"/>
<path d="M39.5 158.847C39.9679 158.847 40.3472 158.468 40.3472 158C40.3472 157.532 39.9679 157.153 39.5 157.153C39.0321 157.153 38.6528 157.532 38.6528 158C38.6528 158.468 39.0321 158.847 39.5 158.847Z" fill="white"/>
<path d="M52.6665 158.847C53.1344 158.847 53.5137 158.468 53.5137 158C53.5137 157.532 53.1344 157.153 52.6665 157.153C52.1986 157.153 51.8193 157.532 51.8193 158C51.8193 158.468 52.1986 158.847 52.6665 158.847Z" fill="white"/>
<path d="M65.8335 158.847C66.3014 158.847 66.6807 158.468 66.6807 158C66.6807 157.532 66.3014 157.153 65.8335 157.153C65.3656 157.153 64.9863 157.532 64.9863 158C64.9863 158.468 65.3656 158.847 65.8335 158.847Z" fill="white"/>
<path d="M79 158.847C79.4679 158.847 79.8472 158.468 79.8472 158C79.8472 157.532 79.4679 157.153 79 157.153C78.5321 157.153 78.1528 157.532 78.1528 158C78.1528 158.468 78.5321 158.847 79 158.847Z" fill="white"/>
<path d="M92.1665 158.847C92.6344 158.847 93.0137 158.468 93.0137 158C93.0137 157.532 92.6344 157.153 92.1665 157.153C91.6986 157.153 91.3193 157.532 91.3193 158C91.3193 158.468 91.6986 158.847 92.1665 158.847Z" fill="white"/>
<path d="M105.333 158.847C105.801 158.847 106.181 158.468 106.181 158C106.181 157.532 105.801 157.153 105.333 157.153C104.866 157.153 104.486 157.532 104.486 158C104.486 158.468 104.866 158.847 105.333 158.847Z" fill="white"/>
<path d="M118.5 158.847C118.968 158.847 119.347 158.468 119.347 158C119.347 157.532 118.968 157.153 118.5 157.153C118.032 157.153 117.653 157.532 117.653 158C117.653 158.468 118.032 158.847 118.5 158.847Z" fill="white"/>
<path d="M131.667 158.847C132.134 158.847 132.514 158.468 132.514 158C132.514 157.532 132.134 157.153 131.667 157.153C131.199 157.153 130.819 157.532 130.819 158C130.819 158.468 131.199 158.847 131.667 158.847Z" fill="white"/>
<path d="M144.833 158.847C145.301 158.847 145.681 158.468 145.681 158C145.681 157.532 145.301 157.153 144.833 157.153C144.366 157.153 143.986 157.532 143.986 158C143.986 158.468 144.366 158.847 144.833 158.847Z" fill="white"/>
<path d="M158 158.847C158.468 158.847 158.847 158.468 158.847 158C158.847 157.532 158.468 157.153 158 157.153C157.532 157.153 157.153 157.532 157.153 158C157.153 158.468 157.532 158.847 158 158.847Z" fill="white"/>
</g>
<defs>
<clipPath id="clip0_922_6700">
<rect width="158" height="158" fill="white"/>
</clipPath>
</defs>
</svg>
