<svg width="129" height="129" viewBox="0 0 129 129" fill="none" xmlns="http://www.w3.org/2000/svg">
<path d="M51.6136 78.0425L51.7819 78.4829C51.8343 78.625 51.9134 78.8155 51.9812 79.0158L52.2258 79.72C52.3215 79.9893 52.3994 80.2614 52.5014 80.5766C52.5987 80.8875 52.7138 81.2355 52.804 81.5776L53.119 82.7039C53.2228 83.0964 53.31 83.4905 53.415 83.9198C53.8651 85.7735 54.1849 87.6565 54.3719 89.555C54.4793 90.5653 54.5249 91.5724 54.5473 92.6079C54.5488 93.6228 54.5244 94.6636 54.4294 95.6802C54.3362 96.6912 54.1826 97.6958 53.9696 98.6885C53.7559 99.6628 53.4737 100.621 53.1253 101.555C52.4306 103.408 51.4563 105.121 50.1908 106.634C49.5647 107.398 48.833 108.079 48.1081 108.784C47.3729 109.479 46.6206 110.174 45.8353 110.848C44.2472 112.226 42.588 113.52 40.8645 114.724C39.124 115.948 37.2933 117.082 35.4155 118.122C34.4748 118.638 33.5215 119.131 32.5566 119.6C31.5947 120.062 30.6217 120.5 29.6385 120.914C27.6773 121.732 25.7012 122.443 23.742 123.031C21.8506 123.602 19.9322 124.08 17.9937 124.462C14.2864 125.202 10.8838 125.505 8.35471 125.569L7.45045 125.585L6.63841 125.584L5.32372 125.549L4.48093 125.5L4.18313 125.474L4.15743 125.176L4.10804 124.334L4.07302 123.019L4.07227 122.207L4.08789 121.303C4.15264 118.773 4.45549 115.371 5.19497 111.664C5.57738 109.725 6.05499 107.807 6.62606 105.915C7.21437 103.956 7.92463 101.98 8.74272 100.019C9.15711 99.0356 9.59538 98.0626 10.0572 97.1007C10.5258 96.1393 11.0171 95.1831 11.5349 94.2418C12.5752 92.364 13.709 90.5333 14.933 88.7928C16.1372 87.0692 17.4311 85.41 18.8093 83.822C19.483 83.0367 20.1779 82.2841 20.873 81.5492C21.5782 80.8243 22.2592 80.0926 23.0229 79.4665C24.5367 78.201 26.2487 77.2267 28.1015 76.532C29.0362 76.1837 29.9942 75.9015 30.9685 75.6877C31.9612 75.4747 32.9658 75.3211 33.9768 75.2279C34.9935 75.1329 36.0345 75.1085 37.0492 75.11C38.0847 75.1322 39.0915 75.178 40.1021 75.2854C42.0005 75.4723 43.8835 75.792 45.7373 76.2423C46.1663 76.3471 46.5604 76.4345 46.9532 76.5383L48.0794 76.8533C48.4216 76.9437 48.7698 77.0586 49.0804 77.1558C49.3959 77.2576 49.6677 77.3357 49.9371 77.4315L50.6413 77.6761C50.8416 77.7439 51.032 77.823 51.1741 77.8754C51.4636 77.985 51.6136 78.0425 51.6136 78.0425Z" fill="#FFB636"/>
<path d="M19.3651 45.793L1.09502 64.0631C-0.167766 65.3259 0.726667 67.4851 2.51251 67.4851H17.8678C18.3994 67.4851 18.9094 67.6963 19.2853 68.0722L29.2556 78.0425L45.4488 45.2059H20.7826C20.5194 45.2059 20.2587 45.2577 20.0155 45.3584C19.7723 45.4591 19.5513 45.6068 19.3651 45.793Z" fill="#FF473E"/>
<path d="M54.4624 98.9148L64.4327 108.885C64.8086 109.261 65.0197 109.771 65.0197 110.303V125.658C65.0197 127.444 67.179 128.338 68.4418 127.075L86.7119 108.805C87.0878 108.429 87.299 107.919 87.299 107.388V82.7215L54.4624 98.9148Z" fill="#FF473E"/>
<path d="M127.399 4.50368L127.419 4.66417C127.43 4.76974 127.454 4.9325 127.47 5.13331C127.503 5.53467 127.578 6.15649 127.614 6.9053C127.727 8.44574 127.804 10.6143 127.75 13.2233C127.698 15.8338 127.514 18.8831 127.116 22.1933C127.026 23.0313 126.899 23.861 126.776 24.7232C126.662 25.5942 126.5 26.445 126.351 27.3367C126.046 29.1122 125.666 30.9189 125.227 32.762C124.312 36.587 123.15 40.3488 121.749 44.0235C120.303 47.8081 118.568 51.5884 116.534 55.2606C114.498 58.9298 112.181 62.5088 109.592 65.9107C107.006 69.3159 104.151 72.5471 101.088 75.5701C98.0252 78.5933 94.7581 81.4121 91.3255 83.9705C90.4671 84.6097 89.6036 85.2383 88.7208 85.8397C87.8475 86.4509 86.9554 87.0355 86.0662 87.6144C84.2794 88.7639 82.4547 89.8394 80.6112 90.8488C76.9819 92.8343 73.2217 94.5706 69.3567 96.0456C65.6841 97.4437 61.9273 98.6099 58.1085 99.5371C56.2695 99.9803 54.4723 100.37 52.6998 100.678L51.3949 100.913C50.9626 100.987 50.5239 101.048 50.0981 101.115L48.8346 101.308L47.5814 101.467C44.2891 101.884 41.2599 102.088 38.6685 102.159C36.08 102.233 33.9238 102.169 32.401 102.073C31.6597 102.045 31.0419 101.974 30.6453 101.946C30.4466 101.931 30.2851 101.909 30.1807 101.898L30.0218 101.881C28.8169 101.747 27.9031 100.79 27.7746 99.6336L27.757 99.4749C27.7464 99.3706 27.7245 99.2091 27.7098 99.0103C27.6819 98.6137 27.6108 97.9962 27.5829 97.2547C27.4866 95.7319 27.4226 93.5759 27.4964 90.9871C27.5677 88.3958 27.7718 85.3665 28.1883 82.0743L28.3478 80.821L28.5405 79.5575C28.6073 79.1317 28.6685 78.6933 28.7423 78.2607L28.9774 76.9558C29.2851 75.1833 29.6751 73.3861 30.1183 71.5471C31.0452 67.7283 32.2114 63.9715 33.6098 60.299C35.085 56.434 36.8213 52.6738 38.8066 49.0445C39.8162 47.2012 40.8918 45.3763 42.0409 43.5894C42.6199 42.7003 43.2045 41.8081 43.8157 40.9348C44.4171 40.0517 45.0457 39.1886 45.6849 38.3302C48.2433 34.8975 51.0621 31.6302 54.0853 28.5675C57.1082 25.5045 60.3395 22.6496 63.7447 20.0638C67.1466 17.4747 70.7255 15.1578 74.3947 13.1212C78.067 11.0877 81.8475 9.35277 85.6318 7.90706C89.3066 6.50562 93.0684 5.34378 96.8934 4.42885C98.7364 3.98969 100.543 3.60925 102.319 3.30438C103.21 3.15598 104.061 2.99347 104.932 2.87934C105.794 2.75638 106.624 2.6289 107.462 2.53996C110.772 2.14137 113.822 1.95744 116.432 1.90529C119.041 1.85162 121.21 1.92796 122.75 2.0421C123.499 2.07762 124.121 2.1527 124.522 2.18546C124.723 2.20209 124.886 2.22502 124.991 2.23711L125.152 2.25651C126.353 2.40138 127.261 3.35351 127.399 4.50368Z" fill="#ADBBBC"/>
<path d="M61.2515 68.4046L61.3984 68.8019C61.4802 69.049 61.5906 69.4046 61.6667 69.8006C61.8471 70.6207 61.9068 71.619 61.5808 72.4872C61.42 72.9236 61.1227 73.2874 60.8428 73.7273L59.9123 75.1269L57.6788 78.4809C56.7918 79.7951 55.8971 81.1042 54.995 82.4081C53.9895 83.8587 52.972 85.301 51.9426 86.7346L50.3023 88.9919L48.5981 91.2809C47.4419 92.8118 46.2587 94.3585 45.0557 95.8851C43.8643 97.4062 42.6579 98.9155 41.4366 100.413C40.232 101.895 39.0509 103.359 37.8884 104.755L36.1829 106.819C35.618 107.486 35.1043 108.177 34.5077 108.753C33.9148 109.333 33.2308 109.79 32.4447 110.108C31.6654 110.432 30.8123 110.645 29.9874 110.844C28.4324 111.213 26.8605 111.506 25.2771 111.722C24.5454 111.822 23.8458 111.9 23.1849 111.959C22.5275 112.022 21.8916 112.047 21.3343 112.087C20.7727 112.122 20.2365 112.119 19.7886 112.135C19.3338 112.144 18.9244 112.13 18.6039 112.129C18.2766 112.122 18.0151 112.105 17.844 112.1L17.5754 112.081L17.5573 111.813C17.5515 111.642 17.5351 111.38 17.5278 111.053C17.5273 110.732 17.5124 110.323 17.5215 109.868C17.5371 109.42 17.5343 108.884 17.5699 108.322C17.6097 107.765 17.6349 107.129 17.6973 106.472C17.7563 105.811 17.8349 105.111 17.9352 104.38C18.1511 102.796 18.4439 101.224 18.8125 99.6694C19.0115 98.8448 19.2247 97.9917 19.5489 97.2121C19.8664 96.4258 20.3235 95.742 20.9034 95.1491C21.4799 94.5528 22.171 94.039 22.8379 93.4741L24.9019 91.7687C26.2985 90.6062 27.7616 89.4248 29.2444 88.2204C30.7246 87.0136 32.2408 85.7999 33.772 84.6014C35.2985 83.398 36.8453 82.2151 38.3761 81.0589L40.6651 79.3547L42.9224 77.7145C44.3561 76.6851 45.7984 75.6676 47.2489 74.6621C48.6347 73.7019 49.9547 72.8039 51.1761 71.9783L54.5301 69.7447L55.9297 68.8142C56.3694 68.5343 56.7332 68.237 57.1698 68.0763C58.0381 67.7502 59.0363 67.8099 59.8564 67.9903C60.2525 68.0664 60.608 68.1768 60.8552 68.2587L61.2515 68.4046Z" fill="#FF473E"/>
<path d="M91.2356 52.0686C91.2356 59.6063 85.1249 65.7169 77.5873 65.7169C70.0496 65.7169 63.939 59.6063 63.939 52.0686C63.939 44.531 70.0496 38.4203 77.5873 38.4203C85.1249 38.4203 91.2356 44.531 91.2356 52.0686ZM98.096 22.8721C93.2978 22.8721 89.4081 26.7617 89.4081 31.5599C89.4081 36.3581 93.2978 40.2478 98.096 40.2478C102.894 40.2478 106.784 36.3581 106.784 31.5599C106.784 26.7617 102.894 22.8721 98.096 22.8721Z" fill="#2B3B47"/>
</svg>
