<svg width="83" height="144" viewBox="0 0 83 144" fill="none" xmlns="http://www.w3.org/2000/svg">
<g clip-path="url(#clip0_922_6879)">
<path d="M71.9954 137.5C107.127 137.5 135.606 109.02 135.606 73.8889C135.606 38.7578 107.127 10.2783 71.9954 10.2783C36.8642 10.2783 8.38477 38.7578 8.38477 73.8889C8.38477 109.02 36.8642 137.5 71.9954 137.5Z" fill="#D8D9DD"/>
<path d="M71.9966 10.2777C107.127 10.2777 135.606 38.7571 135.606 73.8875C135.606 109.018 107.127 137.497 71.9966 137.497C71.9966 86.9031 71.9966 45.6064 71.9966 10.2777Z" fill="#B7B9C0"/>
<path d="M32.4623 77.2473C37.0204 77.2473 40.7155 73.5522 40.7155 68.994C40.7155 64.4358 37.0204 60.7407 32.4623 60.7407C27.9041 60.7407 24.209 64.4358 24.209 68.994C24.209 73.5522 27.9041 77.2473 32.4623 77.2473Z" fill="#B7B9C0"/>
<path d="M52.0352 36.3743C62.8448 36.3743 71.6072 27.6114 71.6072 16.8024C71.6072 14.5217 71.2157 12.3328 70.4985 10.2974C56.625 10.618 43.8514 15.3821 33.5405 23.2197C36.1978 30.8764 43.474 36.3743 52.0352 36.3743Z" fill="#B7B9C0"/>
<path d="M71.9968 94.6097C69.5724 92.4565 66.3822 91.1467 62.8846 91.1467C55.3015 91.1467 49.1548 97.294 49.1548 104.876C49.1548 112.46 55.3021 118.606 62.8846 118.606C66.3822 118.606 69.5724 117.296 71.9968 115.143C74.8287 112.628 76.6149 108.962 76.6149 104.876C76.6146 100.791 74.8287 97.1249 71.9968 94.6097Z" fill="#B7B9C0"/>
<path d="M71.9971 94.6097V115.143C74.829 112.628 76.6152 108.962 76.6152 104.877C76.6149 100.791 74.829 97.1249 71.9971 94.6097Z" fill="#9B9DA6"/>
<path d="M34.2952 123.134C16.2176 135.33 10.3502 134.741 9.44932 134.536C8.94532 132.927 10.11 125.913 20.1717 110.762C18.1729 107.958 16.397 104.985 14.8679 101.868C0.636636 122.231 -3.31746 135.119 2.78595 141.222C4.63714 143.073 7.13098 144 10.241 144C12.5363 144 15.1671 143.495 18.1222 142.484C23.4401 140.664 30.0079 137.2 37.6427 132.188C48.077 125.337 59.885 116.012 71.9974 105.116V92.3628C58.7938 104.736 45.7044 115.437 34.2952 123.134Z" fill="#61A2EF"/>
<path d="M141.208 2.80014C135.688 -2.71939 125.935 1.39192 122.73 2.74276C116.312 5.44754 108.509 10.0854 99.5226 16.5319C102.644 18.0326 105.623 19.78 108.437 21.7499C114.74 17.4249 120.424 14.0774 125.078 11.9661C131.416 9.09001 133.927 9.34454 134.524 9.48039C134.733 10.4364 135.242 16.3406 123.119 34.31C113.412 48.699 98.9283 65.7608 82.3368 82.3523C78.9005 85.7883 75.4445 89.1321 71.9961 92.3636V105.117C77.6267 100.052 83.3226 94.6477 88.9777 88.9931C106.798 71.1734 122.138 52.942 132.173 37.6569C137.186 30.022 140.65 23.4543 142.47 18.1364C144.85 11.1777 144.425 6.0182 141.208 2.80014Z" fill="#528ACF"/>
</g>
<defs>
<clipPath id="clip0_922_6879">
<rect width="144" height="144" fill="white"/>
</clipPath>
</defs>
</svg>
