<svg width="416" height="302" viewBox="0 0 416 302" fill="none" xmlns="http://www.w3.org/2000/svg">
<path fill-rule="evenodd" clip-rule="evenodd" d="M409 74.1448C409 129.856 300.25 148 208.924 148C122.932 148 25 126.601 25 74.1448C25 21.6261 122.83 -1.25089e-05 208.924 -8.74562e-06C300.346 -4.74941e-06 409 18.3754 409 74.1448Z" fill="#F7D046"/>
<path fill-rule="evenodd" clip-rule="evenodd" d="M384 169.131C384 219.572 275.25 236 183.924 236C97.932 236 -1.63818e-06 216.625 4.37859e-07 169.131C2.51637e-06 121.58 97.8299 102 183.924 102C275.346 102 384 118.637 384 169.131Z" fill="#F7D046"/>
<path fill-rule="evenodd" clip-rule="evenodd" d="M416 243.614C416 287.656 302.719 302 207.587 302C118.012 302 16 285.083 16 243.614C16 202.096 117.906 185 207.587 185C302.819 185 416 199.526 416 243.614Z" fill="#F7D046"/>
</svg>
