<svg width="61" height="61" viewBox="0 0 61 61" fill="none" xmlns="http://www.w3.org/2000/svg">
<path d="M28.8663 14.9276L27.8771 14.6626C25.6919 14.077 23.4457 15.3738 22.8602 17.5591L21.8 21.5158C21.2699 23.4941 19.0227 27.1328 14.2747 25.8605C16.253 26.3906 19.8917 28.6378 18.6194 33.3859L17.5591 37.343C16.9736 39.5282 18.2705 41.7739 20.4557 42.3595L21.4449 42.6245M38.758 17.5781L39.7472 17.8432C41.9325 18.4287 43.2292 20.6748 42.6437 22.86L41.5835 26.8167C41.0534 28.7951 41.1802 33.0698 45.9283 34.3421C43.9499 33.812 39.6752 33.9388 38.4029 38.6868L37.3426 42.6439C36.7571 44.8292 34.5111 46.1256 32.3258 45.54L31.3367 45.275" stroke="#33AADD" stroke-width="4" stroke-linecap="round" stroke-linejoin="round"/>
</svg>
