<svg width="81" height="183" viewBox="0 0 81 183" fill="none" xmlns="http://www.w3.org/2000/svg">
<g clip-path="url(#clip0_926_5314)">
<path d="M0.000154257 1.65546C0.914422 1.65546 1.65558 0.9143 1.65558 3.21865e-05C1.65558 -0.914235 0.914422 -1.6554 0.000154257 -1.6554C-0.914113 -1.6554 -1.65527 -0.914235 -1.65527 3.21865e-05C-1.65527 0.9143 -0.914113 1.65546 0.000154257 1.65546Z" stroke="white" stroke-width="0.5"/>
<path d="M15.2502 1.65546C16.1644 1.65546 16.9056 0.9143 16.9056 3.21865e-05C16.9056 -0.914235 16.1644 -1.6554 15.2502 -1.6554C14.3359 -1.6554 13.5947 -0.914235 13.5947 3.21865e-05C13.5947 0.9143 14.3359 1.65546 15.2502 1.65546Z" stroke="white" stroke-width="0.5"/>
<path d="M30.5002 1.65546C31.4144 1.65546 32.1556 0.9143 32.1556 3.21865e-05C32.1556 -0.914235 31.4144 -1.6554 30.5002 -1.6554C29.5859 -1.6554 28.8447 -0.914235 28.8447 3.21865e-05C28.8447 0.9143 29.5859 1.65546 30.5002 1.65546Z" stroke="white" stroke-width="0.5"/>
<path d="M45.7502 1.65546C46.6644 1.65546 47.4056 0.9143 47.4056 3.21865e-05C47.4056 -0.914235 46.6644 -1.6554 45.7502 -1.6554C44.8359 -1.6554 44.0947 -0.914235 44.0947 3.21865e-05C44.0947 0.9143 44.8359 1.65546 45.7502 1.65546Z" stroke="white" stroke-width="0.5"/>
<path d="M61.0002 1.65546C61.9144 1.65546 62.6556 0.9143 62.6556 3.21865e-05C62.6556 -0.914235 61.9144 -1.6554 61.0002 -1.6554C60.0859 -1.6554 59.3447 -0.914235 59.3447 3.21865e-05C59.3447 0.9143 60.0859 1.65546 61.0002 1.65546Z" stroke="white" stroke-width="0.5"/>
<path d="M76.2502 1.65546C77.1644 1.65546 77.9056 0.9143 77.9056 3.21865e-05C77.9056 -0.914235 77.1644 -1.6554 76.2502 -1.6554C75.3359 -1.6554 74.5947 -0.914235 74.5947 3.21865e-05C74.5947 0.9143 75.3359 1.65546 76.2502 1.65546Z" stroke="white" stroke-width="0.5"/>
<path d="M0.000154257 16.9055C0.914422 16.9055 1.65558 16.1643 1.65558 15.25C1.65558 14.3358 0.914422 13.5946 0.000154257 13.5946C-0.914113 13.5946 -1.65527 14.3358 -1.65527 15.25C-1.65527 16.1643 -0.914113 16.9055 0.000154257 16.9055Z" stroke="white" stroke-width="0.5"/>
<path d="M15.2502 16.9055C16.1644 16.9055 16.9056 16.1643 16.9056 15.25C16.9056 14.3358 16.1644 13.5946 15.2502 13.5946C14.3359 13.5946 13.5947 14.3358 13.5947 15.25C13.5947 16.1643 14.3359 16.9055 15.2502 16.9055Z" stroke="white" stroke-width="0.5"/>
<path d="M30.5002 16.9055C31.4144 16.9055 32.1556 16.1643 32.1556 15.25C32.1556 14.3358 31.4144 13.5946 30.5002 13.5946C29.5859 13.5946 28.8447 14.3358 28.8447 15.25C28.8447 16.1643 29.5859 16.9055 30.5002 16.9055Z" stroke="white" stroke-width="0.5"/>
<path d="M45.7502 16.9055C46.6644 16.9055 47.4056 16.1643 47.4056 15.25C47.4056 14.3358 46.6644 13.5946 45.7502 13.5946C44.8359 13.5946 44.0947 14.3358 44.0947 15.25C44.0947 16.1643 44.8359 16.9055 45.7502 16.9055Z" stroke="white" stroke-width="0.5"/>
<path d="M61.0002 16.9055C61.9144 16.9055 62.6556 16.1643 62.6556 15.25C62.6556 14.3358 61.9144 13.5946 61.0002 13.5946C60.0859 13.5946 59.3447 14.3358 59.3447 15.25C59.3447 16.1643 60.0859 16.9055 61.0002 16.9055Z" stroke="white" stroke-width="0.5"/>
<path d="M76.2502 16.9055C77.1644 16.9055 77.9056 16.1643 77.9056 15.25C77.9056 14.3358 77.1644 13.5946 76.2502 13.5946C75.3359 13.5946 74.5947 14.3358 74.5947 15.25C74.5947 16.1643 75.3359 16.9055 76.2502 16.9055Z" stroke="white" stroke-width="0.5"/>
<path d="M0.000154257 32.1555C0.914422 32.1555 1.65558 31.4143 1.65558 30.5C1.65558 29.5858 0.914422 28.8446 0.000154257 28.8446C-0.914113 28.8446 -1.65527 29.5858 -1.65527 30.5C-1.65527 31.4143 -0.914113 32.1555 0.000154257 32.1555Z" stroke="white" stroke-width="0.5"/>
<path d="M15.2502 32.1555C16.1644 32.1555 16.9056 31.4143 16.9056 30.5C16.9056 29.5858 16.1644 28.8446 15.2502 28.8446C14.3359 28.8446 13.5947 29.5858 13.5947 30.5C13.5947 31.4143 14.3359 32.1555 15.2502 32.1555Z" stroke="white" stroke-width="0.5"/>
<path d="M30.5002 32.1555C31.4144 32.1555 32.1556 31.4143 32.1556 30.5C32.1556 29.5858 31.4144 28.8446 30.5002 28.8446C29.5859 28.8446 28.8447 29.5858 28.8447 30.5C28.8447 31.4143 29.5859 32.1555 30.5002 32.1555Z" stroke="white" stroke-width="0.5"/>
<path d="M45.7502 32.1555C46.6644 32.1555 47.4056 31.4143 47.4056 30.5C47.4056 29.5858 46.6644 28.8446 45.7502 28.8446C44.8359 28.8446 44.0947 29.5858 44.0947 30.5C44.0947 31.4143 44.8359 32.1555 45.7502 32.1555Z" stroke="white" stroke-width="0.5"/>
<path d="M61.0002 32.1555C61.9144 32.1555 62.6556 31.4143 62.6556 30.5C62.6556 29.5858 61.9144 28.8446 61.0002 28.8446C60.0859 28.8446 59.3447 29.5858 59.3447 30.5C59.3447 31.4143 60.0859 32.1555 61.0002 32.1555Z" stroke="white" stroke-width="0.5"/>
<path d="M76.2502 32.1555C77.1644 32.1555 77.9056 31.4143 77.9056 30.5C77.9056 29.5858 77.1644 28.8446 76.2502 28.8446C75.3359 28.8446 74.5947 29.5858 74.5947 30.5C74.5947 31.4143 75.3359 32.1555 76.2502 32.1555Z" stroke="white" stroke-width="0.5"/>
<path d="M0.000154257 47.4055C0.914422 47.4055 1.65558 46.6643 1.65558 45.75C1.65558 44.8358 0.914422 44.0946 0.000154257 44.0946C-0.914113 44.0946 -1.65527 44.8358 -1.65527 45.75C-1.65527 46.6643 -0.914113 47.4055 0.000154257 47.4055Z" stroke="white" stroke-width="0.5"/>
<path d="M15.2502 47.4055C16.1644 47.4055 16.9056 46.6643 16.9056 45.75C16.9056 44.8358 16.1644 44.0946 15.2502 44.0946C14.3359 44.0946 13.5947 44.8358 13.5947 45.75C13.5947 46.6643 14.3359 47.4055 15.2502 47.4055Z" stroke="white" stroke-width="0.5"/>
<path d="M30.5002 47.4055C31.4144 47.4055 32.1556 46.6643 32.1556 45.75C32.1556 44.8358 31.4144 44.0946 30.5002 44.0946C29.5859 44.0946 28.8447 44.8358 28.8447 45.75C28.8447 46.6643 29.5859 47.4055 30.5002 47.4055Z" stroke="white" stroke-width="0.5"/>
<path d="M45.7502 47.4055C46.6644 47.4055 47.4056 46.6643 47.4056 45.75C47.4056 44.8358 46.6644 44.0946 45.7502 44.0946C44.8359 44.0946 44.0947 44.8358 44.0947 45.75C44.0947 46.6643 44.8359 47.4055 45.7502 47.4055Z" stroke="white" stroke-width="0.5"/>
<path d="M61.0002 47.4055C61.9144 47.4055 62.6556 46.6643 62.6556 45.75C62.6556 44.8358 61.9144 44.0946 61.0002 44.0946C60.0859 44.0946 59.3447 44.8358 59.3447 45.75C59.3447 46.6643 60.0859 47.4055 61.0002 47.4055Z" stroke="white" stroke-width="0.5"/>
<path d="M76.2502 47.4055C77.1644 47.4055 77.9056 46.6643 77.9056 45.75C77.9056 44.8358 77.1644 44.0946 76.2502 44.0946C75.3359 44.0946 74.5947 44.8358 74.5947 45.75C74.5947 46.6643 75.3359 47.4055 76.2502 47.4055Z" stroke="white" stroke-width="0.5"/>
<path d="M0.000154257 62.6555C0.914422 62.6555 1.65558 61.9143 1.65558 61C1.65558 60.0858 0.914422 59.3446 0.000154257 59.3446C-0.914113 59.3446 -1.65527 60.0858 -1.65527 61C-1.65527 61.9143 -0.914113 62.6555 0.000154257 62.6555Z" stroke="white" stroke-width="0.5"/>
<path d="M15.2502 62.6555C16.1644 62.6555 16.9056 61.9143 16.9056 61C16.9056 60.0858 16.1644 59.3446 15.2502 59.3446C14.3359 59.3446 13.5947 60.0858 13.5947 61C13.5947 61.9143 14.3359 62.6555 15.2502 62.6555Z" stroke="white" stroke-width="0.5"/>
<path d="M30.5002 62.6555C31.4144 62.6555 32.1556 61.9143 32.1556 61C32.1556 60.0858 31.4144 59.3446 30.5002 59.3446C29.5859 59.3446 28.8447 60.0858 28.8447 61C28.8447 61.9143 29.5859 62.6555 30.5002 62.6555Z" stroke="white" stroke-width="0.5"/>
<path d="M45.7502 62.6555C46.6644 62.6555 47.4056 61.9143 47.4056 61C47.4056 60.0858 46.6644 59.3446 45.7502 59.3446C44.8359 59.3446 44.0947 60.0858 44.0947 61C44.0947 61.9143 44.8359 62.6555 45.7502 62.6555Z" stroke="white" stroke-width="0.5"/>
<path d="M61.0002 62.6555C61.9144 62.6555 62.6556 61.9143 62.6556 61C62.6556 60.0858 61.9144 59.3446 61.0002 59.3446C60.0859 59.3446 59.3447 60.0858 59.3447 61C59.3447 61.9143 60.0859 62.6555 61.0002 62.6555Z" stroke="white" stroke-width="0.5"/>
<path d="M76.2502 62.6555C77.1644 62.6555 77.9056 61.9143 77.9056 61C77.9056 60.0858 77.1644 59.3446 76.2502 59.3446C75.3359 59.3446 74.5947 60.0858 74.5947 61C74.5947 61.9143 75.3359 62.6555 76.2502 62.6555Z" stroke="white" stroke-width="0.5"/>
<path d="M0.000154257 77.9055C0.914422 77.9055 1.65558 77.1643 1.65558 76.25C1.65558 75.3358 0.914422 74.5946 0.000154257 74.5946C-0.914113 74.5946 -1.65527 75.3358 -1.65527 76.25C-1.65527 77.1643 -0.914113 77.9055 0.000154257 77.9055Z" stroke="white" stroke-width="0.5"/>
<path d="M15.2502 77.9055C16.1644 77.9055 16.9056 77.1643 16.9056 76.25C16.9056 75.3358 16.1644 74.5946 15.2502 74.5946C14.3359 74.5946 13.5947 75.3358 13.5947 76.25C13.5947 77.1643 14.3359 77.9055 15.2502 77.9055Z" stroke="white" stroke-width="0.5"/>
<path d="M30.5002 77.9055C31.4144 77.9055 32.1556 77.1643 32.1556 76.25C32.1556 75.3358 31.4144 74.5946 30.5002 74.5946C29.5859 74.5946 28.8447 75.3358 28.8447 76.25C28.8447 77.1643 29.5859 77.9055 30.5002 77.9055Z" stroke="white" stroke-width="0.5"/>
<path d="M45.7502 77.9055C46.6644 77.9055 47.4056 77.1643 47.4056 76.25C47.4056 75.3358 46.6644 74.5946 45.7502 74.5946C44.8359 74.5946 44.0947 75.3358 44.0947 76.25C44.0947 77.1643 44.8359 77.9055 45.7502 77.9055Z" stroke="white" stroke-width="0.5"/>
<path d="M61.0002 77.9055C61.9144 77.9055 62.6556 77.1643 62.6556 76.25C62.6556 75.3358 61.9144 74.5946 61.0002 74.5946C60.0859 74.5946 59.3447 75.3358 59.3447 76.25C59.3447 77.1643 60.0859 77.9055 61.0002 77.9055Z" stroke="white" stroke-width="0.5"/>
<path d="M76.2502 77.9055C77.1644 77.9055 77.9056 77.1643 77.9056 76.25C77.9056 75.3358 77.1644 74.5946 76.2502 74.5946C75.3359 74.5946 74.5947 75.3358 74.5947 76.25C74.5947 77.1643 75.3359 77.9055 76.2502 77.9055Z" stroke="white" stroke-width="0.5"/>
<path d="M0.000154257 93.1555C0.914422 93.1555 1.65558 92.4143 1.65558 91.5C1.65558 90.5858 0.914422 89.8446 0.000154257 89.8446C-0.914113 89.8446 -1.65527 90.5858 -1.65527 91.5C-1.65527 92.4143 -0.914113 93.1555 0.000154257 93.1555Z" stroke="white" stroke-width="0.5"/>
<path d="M15.2502 93.1555C16.1644 93.1555 16.9056 92.4143 16.9056 91.5C16.9056 90.5858 16.1644 89.8446 15.2502 89.8446C14.3359 89.8446 13.5947 90.5858 13.5947 91.5C13.5947 92.4143 14.3359 93.1555 15.2502 93.1555Z" stroke="white" stroke-width="0.5"/>
<path d="M30.5002 93.1555C31.4144 93.1555 32.1556 92.4143 32.1556 91.5C32.1556 90.5858 31.4144 89.8446 30.5002 89.8446C29.5859 89.8446 28.8447 90.5858 28.8447 91.5C28.8447 92.4143 29.5859 93.1555 30.5002 93.1555Z" stroke="white" stroke-width="0.5"/>
<path d="M45.7502 93.1555C46.6644 93.1555 47.4056 92.4143 47.4056 91.5C47.4056 90.5858 46.6644 89.8446 45.7502 89.8446C44.8359 89.8446 44.0947 90.5858 44.0947 91.5C44.0947 92.4143 44.8359 93.1555 45.7502 93.1555Z" stroke="white" stroke-width="0.5"/>
<path d="M61.0002 93.1555C61.9144 93.1555 62.6556 92.4143 62.6556 91.5C62.6556 90.5858 61.9144 89.8446 61.0002 89.8446C60.0859 89.8446 59.3447 90.5858 59.3447 91.5C59.3447 92.4143 60.0859 93.1555 61.0002 93.1555Z" stroke="white" stroke-width="0.5"/>
<path d="M76.2502 93.1555C77.1644 93.1555 77.9056 92.4143 77.9056 91.5C77.9056 90.5858 77.1644 89.8446 76.2502 89.8446C75.3359 89.8446 74.5947 90.5858 74.5947 91.5C74.5947 92.4143 75.3359 93.1555 76.2502 93.1555Z" stroke="white" stroke-width="0.5"/>
<path d="M0.000154257 108.405C0.914422 108.405 1.65558 107.664 1.65558 106.75C1.65558 105.836 0.914422 105.095 0.000154257 105.095C-0.914113 105.095 -1.65527 105.836 -1.65527 106.75C-1.65527 107.664 -0.914113 108.405 0.000154257 108.405Z" stroke="white" stroke-width="0.5"/>
<path d="M15.2502 108.405C16.1644 108.405 16.9056 107.664 16.9056 106.75C16.9056 105.836 16.1644 105.095 15.2502 105.095C14.3359 105.095 13.5947 105.836 13.5947 106.75C13.5947 107.664 14.3359 108.405 15.2502 108.405Z" stroke="white" stroke-width="0.5"/>
<path d="M30.5002 108.405C31.4144 108.405 32.1556 107.664 32.1556 106.75C32.1556 105.836 31.4144 105.095 30.5002 105.095C29.5859 105.095 28.8447 105.836 28.8447 106.75C28.8447 107.664 29.5859 108.405 30.5002 108.405Z" stroke="white" stroke-width="0.5"/>
<path d="M45.7502 108.405C46.6644 108.405 47.4056 107.664 47.4056 106.75C47.4056 105.836 46.6644 105.095 45.7502 105.095C44.8359 105.095 44.0947 105.836 44.0947 106.75C44.0947 107.664 44.8359 108.405 45.7502 108.405Z" stroke="white" stroke-width="0.5"/>
<path d="M61.0002 108.405C61.9144 108.405 62.6556 107.664 62.6556 106.75C62.6556 105.836 61.9144 105.095 61.0002 105.095C60.0859 105.095 59.3447 105.836 59.3447 106.75C59.3447 107.664 60.0859 108.405 61.0002 108.405Z" stroke="white" stroke-width="0.5"/>
<path d="M76.2502 108.405C77.1644 108.405 77.9056 107.664 77.9056 106.75C77.9056 105.836 77.1644 105.095 76.2502 105.095C75.3359 105.095 74.5947 105.836 74.5947 106.75C74.5947 107.664 75.3359 108.405 76.2502 108.405Z" stroke="white" stroke-width="0.5"/>
<path d="M0.000154257 123.655C0.914422 123.655 1.65558 122.914 1.65558 122C1.65558 121.086 0.914422 120.345 0.000154257 120.345C-0.914113 120.345 -1.65527 121.086 -1.65527 122C-1.65527 122.914 -0.914113 123.655 0.000154257 123.655Z" stroke="white" stroke-width="0.5"/>
<path d="M15.2502 123.655C16.1644 123.655 16.9056 122.914 16.9056 122C16.9056 121.086 16.1644 120.345 15.2502 120.345C14.3359 120.345 13.5947 121.086 13.5947 122C13.5947 122.914 14.3359 123.655 15.2502 123.655Z" stroke="white" stroke-width="0.5"/>
<path d="M30.5002 123.655C31.4144 123.655 32.1556 122.914 32.1556 122C32.1556 121.086 31.4144 120.345 30.5002 120.345C29.5859 120.345 28.8447 121.086 28.8447 122C28.8447 122.914 29.5859 123.655 30.5002 123.655Z" stroke="white" stroke-width="0.5"/>
<path d="M45.7502 123.655C46.6644 123.655 47.4056 122.914 47.4056 122C47.4056 121.086 46.6644 120.345 45.7502 120.345C44.8359 120.345 44.0947 121.086 44.0947 122C44.0947 122.914 44.8359 123.655 45.7502 123.655Z" stroke="white" stroke-width="0.5"/>
<path d="M61.0002 123.655C61.9144 123.655 62.6556 122.914 62.6556 122C62.6556 121.086 61.9144 120.345 61.0002 120.345C60.0859 120.345 59.3447 121.086 59.3447 122C59.3447 122.914 60.0859 123.655 61.0002 123.655Z" stroke="white" stroke-width="0.5"/>
<path d="M76.2502 123.655C77.1644 123.655 77.9056 122.914 77.9056 122C77.9056 121.086 77.1644 120.345 76.2502 120.345C75.3359 120.345 74.5947 121.086 74.5947 122C74.5947 122.914 75.3359 123.655 76.2502 123.655Z" stroke="white" stroke-width="0.5"/>
<path d="M0.000154257 138.905C0.914422 138.905 1.65558 138.164 1.65558 137.25C1.65558 136.336 0.914422 135.595 0.000154257 135.595C-0.914113 135.595 -1.65527 136.336 -1.65527 137.25C-1.65527 138.164 -0.914113 138.905 0.000154257 138.905Z" stroke="white" stroke-width="0.5"/>
<path d="M15.2502 138.905C16.1644 138.905 16.9056 138.164 16.9056 137.25C16.9056 136.336 16.1644 135.595 15.2502 135.595C14.3359 135.595 13.5947 136.336 13.5947 137.25C13.5947 138.164 14.3359 138.905 15.2502 138.905Z" stroke="white" stroke-width="0.5"/>
<path d="M30.5002 138.905C31.4144 138.905 32.1556 138.164 32.1556 137.25C32.1556 136.336 31.4144 135.595 30.5002 135.595C29.5859 135.595 28.8447 136.336 28.8447 137.25C28.8447 138.164 29.5859 138.905 30.5002 138.905Z" stroke="white" stroke-width="0.5"/>
<path d="M45.7502 138.905C46.6644 138.905 47.4056 138.164 47.4056 137.25C47.4056 136.336 46.6644 135.595 45.7502 135.595C44.8359 135.595 44.0947 136.336 44.0947 137.25C44.0947 138.164 44.8359 138.905 45.7502 138.905Z" stroke="white" stroke-width="0.5"/>
<path d="M61.0002 138.905C61.9144 138.905 62.6556 138.164 62.6556 137.25C62.6556 136.336 61.9144 135.595 61.0002 135.595C60.0859 135.595 59.3447 136.336 59.3447 137.25C59.3447 138.164 60.0859 138.905 61.0002 138.905Z" stroke="white" stroke-width="0.5"/>
<path d="M76.2502 138.905C77.1644 138.905 77.9056 138.164 77.9056 137.25C77.9056 136.336 77.1644 135.595 76.2502 135.595C75.3359 135.595 74.5947 136.336 74.5947 137.25C74.5947 138.164 75.3359 138.905 76.2502 138.905Z" stroke="white" stroke-width="0.5"/>
<path d="M0.000154257 154.155C0.914422 154.155 1.65558 153.414 1.65558 152.5C1.65558 151.586 0.914422 150.845 0.000154257 150.845C-0.914113 150.845 -1.65527 151.586 -1.65527 152.5C-1.65527 153.414 -0.914113 154.155 0.000154257 154.155Z" stroke="white" stroke-width="0.5"/>
<path d="M15.2502 154.155C16.1644 154.155 16.9056 153.414 16.9056 152.5C16.9056 151.586 16.1644 150.845 15.2502 150.845C14.3359 150.845 13.5947 151.586 13.5947 152.5C13.5947 153.414 14.3359 154.155 15.2502 154.155Z" stroke="white" stroke-width="0.5"/>
<path d="M30.5002 154.155C31.4144 154.155 32.1556 153.414 32.1556 152.5C32.1556 151.586 31.4144 150.845 30.5002 150.845C29.5859 150.845 28.8447 151.586 28.8447 152.5C28.8447 153.414 29.5859 154.155 30.5002 154.155Z" stroke="white" stroke-width="0.5"/>
<path d="M45.7502 154.155C46.6644 154.155 47.4056 153.414 47.4056 152.5C47.4056 151.586 46.6644 150.845 45.7502 150.845C44.8359 150.845 44.0947 151.586 44.0947 152.5C44.0947 153.414 44.8359 154.155 45.7502 154.155Z" stroke="white" stroke-width="0.5"/>
<path d="M61.0002 154.155C61.9144 154.155 62.6556 153.414 62.6556 152.5C62.6556 151.586 61.9144 150.845 61.0002 150.845C60.0859 150.845 59.3447 151.586 59.3447 152.5C59.3447 153.414 60.0859 154.155 61.0002 154.155Z" stroke="white" stroke-width="0.5"/>
<path d="M76.2502 154.155C77.1644 154.155 77.9056 153.414 77.9056 152.5C77.9056 151.586 77.1644 150.845 76.2502 150.845C75.3359 150.845 74.5947 151.586 74.5947 152.5C74.5947 153.414 75.3359 154.155 76.2502 154.155Z" stroke="white" stroke-width="0.5"/>
<path d="M0.000154257 169.405C0.914422 169.405 1.65558 168.664 1.65558 167.75C1.65558 166.836 0.914422 166.095 0.000154257 166.095C-0.914113 166.095 -1.65527 166.836 -1.65527 167.75C-1.65527 168.664 -0.914113 169.405 0.000154257 169.405Z" stroke="white" stroke-width="0.5"/>
<path d="M15.2502 169.405C16.1644 169.405 16.9056 168.664 16.9056 167.75C16.9056 166.836 16.1644 166.095 15.2502 166.095C14.3359 166.095 13.5947 166.836 13.5947 167.75C13.5947 168.664 14.3359 169.405 15.2502 169.405Z" stroke="white" stroke-width="0.5"/>
<path d="M30.5002 169.405C31.4144 169.405 32.1556 168.664 32.1556 167.75C32.1556 166.836 31.4144 166.095 30.5002 166.095C29.5859 166.095 28.8447 166.836 28.8447 167.75C28.8447 168.664 29.5859 169.405 30.5002 169.405Z" stroke="white" stroke-width="0.5"/>
<path d="M45.7502 169.405C46.6644 169.405 47.4056 168.664 47.4056 167.75C47.4056 166.836 46.6644 166.095 45.7502 166.095C44.8359 166.095 44.0947 166.836 44.0947 167.75C44.0947 168.664 44.8359 169.405 45.7502 169.405Z" stroke="white" stroke-width="0.5"/>
<path d="M61.0002 169.405C61.9144 169.405 62.6556 168.664 62.6556 167.75C62.6556 166.836 61.9144 166.095 61.0002 166.095C60.0859 166.095 59.3447 166.836 59.3447 167.75C59.3447 168.664 60.0859 169.405 61.0002 169.405Z" stroke="white" stroke-width="0.5"/>
<path d="M76.2502 169.405C77.1644 169.405 77.9056 168.664 77.9056 167.75C77.9056 166.836 77.1644 166.095 76.2502 166.095C75.3359 166.095 74.5947 166.836 74.5947 167.75C74.5947 168.664 75.3359 169.405 76.2502 169.405Z" stroke="white" stroke-width="0.5"/>
<path d="M0.000154257 184.655C0.914422 184.655 1.65558 183.914 1.65558 183C1.65558 182.086 0.914422 181.345 0.000154257 181.345C-0.914113 181.345 -1.65527 182.086 -1.65527 183C-1.65527 183.914 -0.914113 184.655 0.000154257 184.655Z" stroke="white" stroke-width="0.5"/>
<path d="M15.2502 184.655C16.1644 184.655 16.9056 183.914 16.9056 183C16.9056 182.086 16.1644 181.345 15.2502 181.345C14.3359 181.345 13.5947 182.086 13.5947 183C13.5947 183.914 14.3359 184.655 15.2502 184.655Z" stroke="white" stroke-width="0.5"/>
<path d="M30.5002 184.655C31.4144 184.655 32.1556 183.914 32.1556 183C32.1556 182.086 31.4144 181.345 30.5002 181.345C29.5859 181.345 28.8447 182.086 28.8447 183C28.8447 183.914 29.5859 184.655 30.5002 184.655Z" stroke="white" stroke-width="0.5"/>
<path d="M45.7502 184.655C46.6644 184.655 47.4056 183.914 47.4056 183C47.4056 182.086 46.6644 181.345 45.7502 181.345C44.8359 181.345 44.0947 182.086 44.0947 183C44.0947 183.914 44.8359 184.655 45.7502 184.655Z" stroke="white" stroke-width="0.5"/>
<path d="M61.0002 184.655C61.9144 184.655 62.6556 183.914 62.6556 183C62.6556 182.086 61.9144 181.345 61.0002 181.345C60.0859 181.345 59.3447 182.086 59.3447 183C59.3447 183.914 60.0859 184.655 61.0002 184.655Z" stroke="white" stroke-width="0.5"/>
<path d="M76.2502 184.655C77.1644 184.655 77.9056 183.914 77.9056 183C77.9056 182.086 77.1644 181.345 76.2502 181.345C75.3359 181.345 74.5947 182.086 74.5947 183C74.5947 183.914 75.3359 184.655 76.2502 184.655Z" stroke="white" stroke-width="0.5"/>
</g>
<defs>
<clipPath id="clip0_926_5314">
<rect width="183" height="183" fill="white"/>
</clipPath>
</defs>
</svg>
