<svg width="1593" height="415" viewBox="0 0 1593 415" fill="none" xmlns="http://www.w3.org/2000/svg">
<path d="M915.3 0L539.1 415H1310.4L915.3 0Z" fill="#332FD0"/>
<path d="M915.3 0L839.61 415H1310.4L915.3 0Z" fill="#3D155F"/>
<path d="M0 415L412.2 195.511L788.4 415H0Z" fill="#4028B7"/>
<path d="M357.3 415L412.2 195.511L788.4 415H357.3Z" fill="#421873"/>
<path d="M1136.7 88.5333L1450.8 415H842.4L1136.7 88.5333Z" fill="#45219F"/>
<path d="M1136.7 88.5333L1450.8 415H1099.8L1136.7 88.5333Z" fill="#451C89"/>
<path d="M630.9 225.944L851.4 415H384.3L630.9 225.944Z" fill="#451C89"/>
<path d="M582.3 415L630.9 225.944L851.4 415H582.3Z" fill="#45219F"/>
<path d="M1593 415L1314.9 167.844L1040.4 415H1593Z" fill="#421873"/>
<path d="M1593 415L1314.9 167.844L1282.5 415H1593Z" fill="#4028B7"/>
<path d="M1143 415L927.9 218.567L706.5 415H1143Z" fill="#3D155F"/>
<path d="M902.7 415H1143L927.9 218.567L902.7 415Z" fill="#332FD0"/>
</svg>
