<svg width="67" height="67" viewBox="0 0 67 67" fill="none" xmlns="http://www.w3.org/2000/svg">
<g clip-path="url(#clip0_922_6468)">
<path d="M26.7323 39.0089C28.197 39.8546 28.6989 41.7276 27.8532 43.1924C27.0075 44.6572 25.1345 45.159 23.6698 44.3134C22.205 43.4677 21.7031 41.5947 22.5488 40.1299C23.3945 38.6651 25.2675 38.1633 26.7323 39.0089Z" fill="#B59BFF"/>
<path d="M24.864 32.0365C25.7096 30.5718 25.2078 28.6988 23.743 27.8531C22.2782 27.0074 20.4052 27.5093 19.5596 28.974C18.7139 30.4388 19.2157 32.3118 20.6805 33.1575C22.1453 34.0032 24.0183 33.5013 24.864 32.0365Z" fill="#B59BFF"/>
<path d="M28.847 19.0124C30.3118 19.8581 30.8136 21.7311 29.968 23.1958C29.1223 24.6605 27.2493 25.1625 25.7845 24.3168C24.3198 23.4711 23.8179 21.598 24.6636 20.1333C25.5092 18.6686 27.3823 18.1667 28.847 19.0124Z" fill="#B59BFF"/>
<path d="M37.7146 46.5285C38.5603 45.0637 38.0583 43.1907 36.5936 42.345C35.1289 41.4993 33.2558 42.0012 32.4102 43.466C31.5645 44.9307 32.0664 46.8038 33.5311 47.6494C34.9958 48.4951 36.8689 47.9932 37.7146 46.5285Z" fill="#B59BFF"/>
<path fill-rule="evenodd" clip-rule="evenodd" d="M22.2385 52.9172C11.4969 46.7155 7.81653 32.9802 14.0182 22.2385C20.1138 11.6806 32.9374 7.22883 42.9287 12.9973L42.9546 13.0123C43.8888 13.5517 45.4852 14.4731 47.0227 16.1095C51.051 20.3974 49.2644 26.5089 45.8402 30.0144C45.1278 30.7436 44.3944 31.4676 43.6797 32.1571C42.4478 33.3451 42.9554 35.3674 44.4185 35.8623L47.5509 36.922L48.8828 37.4208C52.3371 38.715 54.1194 43.029 51.6476 46.2825C47.4566 51.7989 42.5355 54.9231 37.3372 55.8916C32.1546 56.857 26.9441 55.6339 22.2385 52.9172ZM17.5545 24.2802C12.4804 33.0688 15.4916 44.3068 24.2802 49.3809C28.3211 51.7139 32.5487 52.63 36.5893 51.8773C40.6139 51.1275 44.701 48.676 48.3963 43.8122C48.9773 43.0476 48.7215 41.7209 47.4502 41.2446L46.1801 40.7687L43.1099 39.7303C38.591 38.2015 37.5316 32.4137 40.845 29.2179C41.537 28.5505 42.2407 27.8556 42.9191 27.1611C45.5489 24.469 45.9505 20.9318 44.0465 18.9054C42.9368 17.7241 41.7816 17.0501 40.8871 16.5336C33.1971 12.0938 22.7347 15.3078 17.5545 24.2802Z" fill="#B59BFF"/>
</g>
<defs>
<clipPath id="clip0_922_6468">
<rect width="49" height="49" fill="white" transform="translate(0 42.4353) rotate(-60)"/>
</clipPath>
</defs>
</svg>
