<svg width="147" height="147" viewBox="0 0 147 147" fill="none" xmlns="http://www.w3.org/2000/svg">
<g clip-path="url(#clip0_922_6113)">
<path d="M31.8396 51.3408C41.2795 41.9009 54.0811 36.5951 67.4312 36.5894C80.7812 36.5837 93.5873 41.8786 103.035 51.3104C106.775 55.0503 109.742 59.4901 111.766 64.3764C113.79 69.2627 114.831 74.4998 114.831 79.7887C114.831 85.0776 113.79 90.3147 111.766 95.201C109.742 100.087 106.775 104.527 103.035 108.267C96.9962 114.306 88.8054 117.699 80.2648 117.699C71.7242 117.699 63.5335 114.306 57.4943 108.267C52.6631 103.436 49.9489 96.8831 49.9489 90.0506C49.9489 83.2181 52.6631 76.6655 57.4944 71.8342C61.3594 67.9692 66.6015 65.7979 72.0675 65.7979C77.5334 65.7979 82.7755 67.9692 86.6406 71.8342C89.7326 74.9263 91.4697 79.1199 91.4697 83.4927C91.4697 87.8655 89.7326 92.0592 86.6406 95.1512C84.1685 97.6232 80.8158 99.012 77.3198 99.012C73.8239 99.012 70.4711 97.6232 67.9991 95.1512C66.0235 93.1756 64.9111 90.4978 64.9054 87.7039C64.8998 84.91 66.0012 82.2277 67.9688 80.2441C69.5792 78.6337 71.7634 77.729 74.0409 77.729C76.3184 77.729 78.5026 78.6337 80.113 80.2441C80.7272 80.882 81.2096 81.6346 81.5329 82.4589C81.8561 83.2832 82.0138 84.1632 81.9968 85.0485C81.9799 85.9338 81.7888 86.807 81.4343 87.6184C81.0798 88.4298 80.5689 89.1634 79.9309 89.7774" stroke="#202020" stroke-width="5" stroke-miterlimit="10"/>
</g>
<defs>
<clipPath id="clip0_922_6113">
<rect width="103.047" height="103.047" fill="white" transform="translate(73.8589 0.51709) rotate(45)"/>
</clipPath>
</defs>
</svg>
